<?xml version="1.0" encoding="UTF-8"?>
<svg id="Layer_1" xmlns="http://www.w3.org/2000/svg" version="1.1" xmlns:xlink="http://www.w3.org/1999/xlink" viewBox="0 0 950 649">
  <!-- Generator: Adobe Illustrator 29.8.1, SVG Export Plug-In . SVG Version: 2.1.1 Build 2)  -->
  <defs>
    <style>
      .st0 {
        stroke-width: 1px;
      }

      .st0, .st1, .st2, .st3, .st4, .st5, .st6, .st7, .st8, .st9, .st10 {
        fill: none;
      }

      .st0, .st1, .st3, .st4, .st9 {
        stroke-linecap: round;
      }

      .st0, .st2, .st3, .st4, .st6, .st7, .st8, .st9, .st10 {
        stroke-miterlimit: 10;
      }

      .st0, .st2, .st3, .st10 {
        stroke: #3f3f3f;
      }

      .st11 {
        fill: #193091;
      }

      .st1 {
        stroke: #3a3a3a;
        stroke-dasharray: 2.8 2.8;
        stroke-linejoin: round;
      }

      .st12 {
        fill: #ff7a00;
      }

      .st2, .st3, .st7 {
        stroke-width: .9px;
      }

      .st13 {
        fill: #1771b8;
      }

      .st14 {
        fill: #002c54;
      }

      .st15 {
        fill: #fff;
      }

      .st4, .st6 {
        stroke: #dee3fc;
      }

      .st4, .st16 {
        isolation: isolate;
      }

      .st4, .st16, .st17 {
        opacity: .5;
      }

      .st18 {
        fill: #284962;
      }

      .st19 {
        fill: #e5918f;
      }

      .st20 {
        fill: #ff8401;
      }

      .st21 {
        fill: #ffc48f;
      }

      .st22, .st16 {
        fill: #cc6362;
      }

      .st23 {
        fill: #ff8901;
      }

      .st24 {
        fill: #375f84;
      }

      .st25 {
        fill: #003f82;
      }

      .st26 {
        fill: #003f7d;
      }

      .st27 {
        fill: #6589d1;
      }

      .st6 {
        stroke-width: .8px;
      }

      .st28 {
        fill: #212121;
      }

      .st29 {
        fill: #2b2b2b;
      }

      .st7, .st8, .st9 {
        stroke: #495ad6;
      }

      .st30 {
        fill: #a4afff;
      }

      .st31 {
        fill: #e49191;
      }

      .st8, .st9 {
        stroke-width: 1.7px;
      }

      .st32 {
        fill: #c7e5f2;
      }

      .st33 {
        fill: #281616;
      }

      .st34 {
        fill: #f0f4ff;
      }

      .st10 {
        stroke-width: .5px;
      }

      .st35 {
        fill: #ededed;
      }

      .st36 {
        fill: #3b5fb7;
      }

      .st37 {
        clip-path: url(#clippath);
      }
    </style>
    <clipPath id="clippath">
      <rect class="st5" y="0" width="950" height="649"/>
    </clipPath>
  </defs>
  <g class="st37">
    <g>
      <path class="st6" d="M252.1,114.1v-18.3c0-1.8-1.4-3.3-3.3-3.3h-4.7c-1.4,0-2.6-.9-2.9-2.3-1.6-7.1-4.4-13.8-8.2-19.8-.8-1.2-.6-2.8.4-3.8l3.3-3.3c1.3-1.3,1.3-3.3,0-4.6l-13-13c-1.3-1.3-3.3-1.3-4.6,0l-3.3,3.3c-1,1-2.6,1.1-3.8.4-6-3.8-12.7-6.5-19.8-8.2-1.3-.3-2.3-1.5-2.3-2.9v-4.7c0-1.8-1.4-3.3-3.3-3.3h-18.3c-1.8,0-3.3,1.4-3.3,3.3v4.7c0,1.4-.9,2.6-2.3,2.9-7.1,1.6-13.8,4.4-19.8,8.2-1.2.8-2.8.6-3.8-.4l-3.3-3.3c-1.3-1.3-3.3-1.3-4.6,0l-13,13c-1.3,1.3-1.3,3.3,0,4.6l3.3,3.3c1,1,1.1,2.6.4,3.8-3.8,6-6.5,12.7-8.2,19.8-.3,1.3-1.5,2.3-2.9,2.3h-4.7c-1.8,0-3.3,1.4-3.3,3.3v18.3c0,1.8,1.4,3.3,3.3,3.3h4.7c1.4,0,2.6.9,2.9,2.3,1.6,7.1,4.4,13.8,8.2,19.8.8,1.2.6,2.8-.4,3.8l-3.3,3.3c-1.3,1.3-1.3,3.3,0,4.6l13,13c1.3,1.3,3.3,1.3,4.6,0l3.3-3.3c1-1,2.6-1.1,3.8-.4,6,3.8,12.7,6.5,19.8,8.1,1.3.3,2.3,1.5,2.3,2.9v4.7c0,1.8,1.4,3.3,3.3,3.3h18.3c1.8,0,3.3-1.4,3.3-3.3v-4.7c0-1.4.9-2.6,2.3-2.9,7.1-1.6,13.8-4.4,19.8-8.1,1.2-.8,2.8-.6,3.8.4l3.3,3.3c1.3,1.3,3.3,1.3,4.6,0l13-13c1.3-1.3,1.3-3.3,0-4.6l-3.3-3.3c-1-1-1.1-2.6-.4-3.8,3.8-6,6.5-12.7,8.2-19.8.3-1.3,1.5-2.3,2.9-2.3h4.7c1.7,0,3.2-1.4,3.2-3.2ZM177.7,156.6c-28.5,0-51.6-23.1-51.6-51.7s23.1-51.6,51.6-51.6,51.6,23.1,51.6,51.6-23.1,51.7-51.6,51.7Z"/>
      <path class="st21" d="M328.3,216.3v-12.5c0-1.2-1-2.2-2.2-2.2h-3.2c-.9,0-1.8-.6-2-1.6-1.1-4.8-3-9.4-5.6-13.5-.5-.8-.4-1.9.3-2.6l2.3-2.3c.9-.9.9-2.3,0-3.1l-8.8-8.8c-.9-.9-2.3-.9-3.1,0l-2.3,2.3c-.7.7-1.7.8-2.6.3-4.1-2.6-8.7-4.4-13.5-5.6-.9-.2-1.6-1-1.6-2v-3.2c0-1.2-1-2.2-2.2-2.2h-12.5c-1.2,0-2.2,1-2.2,2.2v3.2c0,.9-.6,1.8-1.6,2-4.8,1.1-9.4,3-13.5,5.6-.8.5-1.9.4-2.6-.3l-2.3-2.3c-.9-.9-2.3-.9-3.1,0l-8.8,8.8c-.9.9-.9,2.3,0,3.1l2.3,2.3c.7.7.8,1.7.3,2.6-2.6,4.1-4.5,8.6-5.6,13.5-.2.9-1,1.6-2,1.6h-3.2c-1.2,0-2.2,1-2.2,2.2v12.5c0,1.2,1,2.2,2.2,2.2h3.2c.9,0,1.8.6,2,1.6,1.1,4.8,3,9.4,5.6,13.5.5.8.4,1.9-.3,2.6l-2.3,2.3c-.9.9-.9,2.3,0,3.1l8.8,8.8c.9.9,2.3.9,3.1,0l2.3-2.3c.7-.7,1.7-.8,2.6-.3,4.1,2.6,8.7,4.4,13.5,5.6.9.2,1.6,1,1.6,2v3.2c0,1.2,1,2.2,2.2,2.2h12.5c1.2,0,2.2-1,2.2-2.2v-3.2c0-.9.6-1.8,1.6-2,4.8-1.1,9.4-3,13.5-5.6.8-.5,1.9-.4,2.6.3l2.3,2.3c.9.9,2.3.9,3.1,0l8.8-8.8c.9-.9.9-2.3,0-3.1l-2.3-2.3c-.7-.7-.8-1.7-.3-2.6,2.6-4.1,4.4-8.6,5.6-13.5.2-.9,1-1.6,2-1.6h3.2c1.2,0,2.2-1,2.2-2.2ZM277.6,243.3c-18.3,0-33.2-14.9-33.2-33.2s14.9-33.2,33.2-33.2,33.2,14.9,33.2,33.2-14.9,33.2-33.2,33.2Z"/>
      <path class="st30" d="M93.2,546.7c3.3,0,6.1-2.7,6.1-6.1s-2.7-6.1-6.1-6.1-6.1,2.7-6.1,6.1,2.7,6.1,6.1,6.1Z"/>
      <path class="st30" d="M904,381.4c3.3,0,6.1-2.7,6.1-6.1s-2.7-6.1-6.1-6.1-6.1,2.7-6.1,6.1,2.7,6.1,6.1,6.1Z"/>
      <path class="st30" d="M891.9,165.4c3.3,0,6.1-2.7,6.1-6.1s-2.7-6.1-6.1-6.1-6.1,2.7-6.1,6.1,2.7,6.1,6.1,6.1Z"/>
      <path class="st30" d="M674.3,89.7c2.1,0,3.8-1.7,3.8-3.8s-1.7-3.8-3.8-3.8-3.8,1.7-3.8,3.8,1.7,3.8,3.8,3.8Z"/>
      <path class="st30" d="M116.9,35.4c0,2.1-1.7,3.8-3.8,3.8s-3.8-1.7-3.8-3.8,1.7-3.8,3.8-3.8c2.1,0,3.8,1.7,3.8,3.8Z"/>
      <path class="st30" d="M201,269.1c0,2.1-1.7,3.8-3.8,3.8s-3.8-1.7-3.8-3.8,1.7-3.8,3.8-3.8,3.8,1.7,3.8,3.8Z"/>
      <path class="st30" d="M61.7,546.7c0,2.1-1.7,3.8-3.8,3.8s-3.8-1.7-3.8-3.8,1.7-3.8,3.8-3.8,3.8,1.7,3.8,3.8Z"/>
      <path class="st30" d="M815.3,550.3c3.3,0,6.1-2.7,6.1-6.1s-2.7-6.1-6.1-6.1-6.1,2.7-6.1,6.1,2.7,6.1,6.1,6.1Z"/>
      <path class="st30" d="M944,550.3c3.3,0,6.1-2.7,6.1-6.1s-2.7-6.1-6.1-6.1-6.1,2.7-6.1,6.1,2.7,6.1,6.1,6.1Z"/>
      <path class="st30" d="M221.3,25c3.3,0,6.1-2.7,6.1-6.1s-2.7-6.1-6.1-6.1-6.1,2.7-6.1,6.1,2.7,6.1,6.1,6.1Z"/>
      <path class="st30" d="M638.8,294.1c0,4.5-3.6,8.1-8.1,8.1s-8.1-3.6-8.1-8.1,3.6-8.1,8.1-8.1,8.1,3.6,8.1,8.1Z"/>
      <path class="st30" d="M41.6,194.1c0,4.5-3.6,8.1-8.1,8.1s-8.1-3.6-8.1-8.1,3.6-8.1,8.1-8.1,8.1,3.6,8.1,8.1Z"/>
      <path class="st21" d="M874.2,514h-10.2c-.7,0-1.2-.5-1.2-1.2v-10.2c0-.7.5-1.2,1.2-1.2h10.2c.7,0,1.2.5,1.2,1.2v10.2c0,.6-.5,1.2-1.2,1.2Z"/>
      <path class="st21" d="M891,514h-10.2c-.7,0-1.2-.5-1.2-1.2v-10.2c0-.7.5-1.2,1.2-1.2h10.2c.7,0,1.2.5,1.2,1.2v10.2c0,.6-.5,1.2-1.2,1.2Z"/>
      <path class="st21" d="M907.8,514h-10.2c-.7,0-1.2-.5-1.2-1.2v-10.2c0-.7.5-1.2,1.2-1.2h10.2c.7,0,1.2.5,1.2,1.2v10.2c0,.6-.5,1.2-1.2,1.2Z"/>
      <path class="st21" d="M97.6,507.2h-10.2c-.7,0-1.2-.5-1.2-1.2v-10.2c0-.7.5-1.2,1.2-1.2h10.2c.7,0,1.2.5,1.2,1.2v10.2c0,.6-.5,1.2-1.2,1.2Z"/>
      <path class="st21" d="M114.4,507.2h-10.2c-.7,0-1.2-.5-1.2-1.2v-10.2c0-.7.5-1.2,1.2-1.2h10.2c.7,0,1.2.5,1.2,1.2v10.2c0,.6-.5,1.2-1.2,1.2Z"/>
      <path class="st21" d="M131.2,507.2h-10.2c-.7,0-1.2-.5-1.2-1.2v-10.2c0-.7.5-1.2,1.2-1.2h10.2c.7,0,1.2.5,1.2,1.2v10.2c0,.6-.5,1.2-1.2,1.2Z"/>
      <path class="st26" d="M552.9,615h-241.8c-21.1,0-38.2-17.1-38.2-38.1V38.8c0-21.1,17.1-38.1,38.2-38.1h241.8c21.1,0,38.2,17.1,38.2,38.1v538.1c0,21.1-17.1,38.1-38.2,38.1Z"/>
      <path class="st35" d="M551.7,606.3h-239.4c-18.5,0-33.4-15-33.4-33.4V39.5c0-18.5,15-33.4,33.4-33.4h239.4c18.5,0,33.4,15,33.4,33.4v533.4c0,18.5-15,33.4-33.4,33.4Z"/>
      <path class="st12" d="M571.7,38.4v532.8c0,12.5-10.1,22.6-22.6,22.6h-234.2c-12.5,0-22.6-10.1-22.6-22.6V38.4c0-12.5,10.1-22.6,22.6-22.6h39.1c2.2,0,4.1,1.2,5.1,3.2l4.1,8.3c1.9,3.8,5.8,6.2,10,6.2h117.5c4.2,0,8.2-2.4,10-6.2l4.1-8.3c1-1.9,2.9-3.2,5.1-3.2h39.1c12.5,0,22.6,10.1,22.6,22.6Z"/>
      <path class="st21" d="M481.3,23.8h-94.6c-2.2,0-4-1.8-4-4s1.8-4,4-4h94.6c2.2,0,4,1.8,4,4,0,2.2-1.8,4-4,4Z"/>
      <path class="st1" d="M534.5,575.4h-210.6c-8.3,0-15-6.7-15-15v-74.3c0-8.3,6.7-15,15-15h210.5c8.3,0,15,6.7,15,15v74.3c0,8.3-6.7,15-15,15Z"/>
      <path class="st1" d="M523.8,319.6h-104.4c-6,0-10.8-4.8-10.8-10.8v-51.6c0-6,4.8-10.8,10.8-10.8h104.4c6,0,10.8,4.8,10.8,10.8v51.6c0,6-4.8,10.8-10.8,10.8Z"/>
      <path class="st26" d="M546.3,453.8h-215.7c-7.1,0-12.9-5.8-12.9-12.9v-90.9c0-7.1,5.8-12.9,12.9-12.9h215.7c7.1,0,12.9,5.8,12.9,12.9v90.9c0,7.1-5.8,12.9-12.9,12.9Z"/>
      <path class="st13" d="M549.5,340.5v91c0,7.1-5.8,12.8-12.9,12.8h-214.8c-7.1,0-12.9-5.7-12.9-12.8v-91c0-7.1,5.8-12.8,12.9-12.8h214.8c7.1,0,12.9,5.8,12.9,12.8Z"/>
      <path class="st35" d="M392.1,434.9h-63.3c-4.8,0-8.7-3.9-8.7-8.7v-63.2c0-4.8,3.9-8.7,8.7-8.7h63.3c4.8,0,8.7,3.9,8.7,8.7v63.2c0,4.8-3.9,8.7-8.7,8.7Z"/>
      <path class="st20" d="M467.1,364.4h-55.7c-1.5,0-2.8-1.2-2.8-2.8s1.2-2.8,2.8-2.8h55.7c1.5,0,2.8,1.2,2.8,2.8s-1.2,2.8-2.8,2.8Z"/>
      <path class="st20" d="M441.7,375.4h-30.3c-1.5,0-2.8-1.2-2.8-2.8s1.2-2.8,2.8-2.8h30.3c1.5,0,2.8,1.2,2.8,2.8s-1.2,2.8-2.8,2.8Z"/>
      <path class="st20" d="M534.9,375.4h-82.1c-1.5,0-2.8-1.2-2.8-2.8s1.2-2.8,2.8-2.8h82.1c1.5,0,2.8,1.2,2.8,2.8s-1.2,2.8-2.8,2.8Z"/>
      <path class="st20" d="M458.3,386.3h-46.9c-1.5,0-2.8-1.2-2.8-2.8s1.2-2.8,2.8-2.8h46.9c1.5,0,2.8,1.2,2.8,2.8s-1.2,2.8-2.8,2.8Z"/>
      <path class="st20" d="M498.1,386.3h-29.5c-1.5,0-2.8-1.2-2.8-2.8s1.2-2.8,2.8-2.8h29.5c1.5,0,2.8,1.2,2.8,2.8,0,1.5-1.2,2.8-2.8,2.8Z"/>
      <path class="st20" d="M534.9,386.3h-27.2c-1.5,0-2.8-1.2-2.8-2.8s1.2-2.8,2.8-2.8h27.2c1.5,0,2.8,1.2,2.8,2.8s-1.2,2.8-2.8,2.8Z"/>
      <path class="st20" d="M534.9,397.3h-123.6c-1.5,0-2.8-1.2-2.8-2.8s1.2-2.8,2.8-2.8h123.6c1.5,0,2.8,1.2,2.8,2.8s-1.2,2.8-2.8,2.8Z"/>
      <path class="st20" d="M479.4,408.2h-68c-1.5,0-2.8-1.2-2.8-2.8s1.2-2.8,2.8-2.8h68c1.5,0,2.8,1.2,2.8,2.8,0,1.5-1.3,2.8-2.8,2.8Z"/>
      <path class="st20" d="M534.9,408.2h-44.6c-1.5,0-2.8-1.2-2.8-2.8s1.2-2.8,2.8-2.8h44.6c1.5,0,2.8,1.2,2.8,2.8s-1.2,2.8-2.8,2.8Z"/>
      <path class="st20" d="M451.3,419.2h-40c-1.5,0-2.8-1.2-2.8-2.8s1.2-2.8,2.8-2.8h40c1.5,0,2.8,1.2,2.8,2.8s-1.2,2.8-2.8,2.8Z"/>
      <path class="st20" d="M502.1,419.2h-40c-1.5,0-2.8-1.2-2.8-2.8s1.2-2.8,2.8-2.8h40c1.5,0,2.8,1.2,2.8,2.8,0,1.5-1.2,2.8-2.8,2.8Z"/>
      <path class="st20" d="M534.9,419.2h-23.2c-1.5,0-2.8-1.2-2.8-2.8s1.2-2.8,2.8-2.8h23.2c1.5,0,2.8,1.2,2.8,2.8s-1.2,2.8-2.8,2.8Z"/>
      <path class="st20" d="M467.1,430.1h-55.7c-1.5,0-2.8-1.2-2.8-2.8s1.2-2.8,2.8-2.8h55.7c1.5,0,2.8,1.2,2.8,2.8s-1.2,2.8-2.8,2.8Z"/>
      <path class="st20" d="M534.9,364.4h-55.7c-1.5,0-2.8-1.2-2.8-2.8s1.2-2.8,2.8-2.8h55.7c1.5,0,2.8,1.2,2.8,2.8s-1.2,2.8-2.8,2.8Z"/>
      <path class="st13" d="M549.5,340.5v3.8h-240.5v-3.8c0-7.1,5.8-12.8,12.9-12.8h214.8c7.1,0,12.9,5.8,12.9,12.8Z"/>
      <path class="st21" d="M504.1,336.3c0,1.6-1.3,3-3,3s-3-1.3-3-3,1.3-3,3-3,3,1.3,3,3Z"/>
      <path class="st21" d="M519.4,336.3c0,1.6-1.3,3-3,3s-3-1.3-3-3,1.3-3,3-3,3,1.3,3,3Z"/>
      <path class="st21" d="M534.6,336.3c0,1.6-1.3,3-3,3s-3-1.3-3-3,1.3-3,3-3,3,1.3,3,3Z"/>
      <path class="st7" d="M383.4,319.6h-47.6c-7.1,0-12.8-5.7-12.8-12.8v-47.6c0-7.1,5.7-12.8,12.8-12.8h47.6c7.1,0,12.8,5.7,12.8,12.8v47.6c0,7.1-5.7,12.8-12.8,12.8Z"/>
      <path class="st21" d="M549.5,67.9v148.8c0,8.1-6.5,14.6-14.6,14.6h-211.2c-8.1,0-14.6-6.5-14.6-14.6V67.9c0-8.1,6.6-14.6,14.6-14.6h211.2c8.1,0,14.6,6.5,14.6,14.6Z"/>
      <path class="st13" d="M745.4,507.8h-93.4v140.4h93.4v-140.4Z"/>
      <path class="st26" d="M745.4,648.1h35.8v-140.4h-35.8v140.4Z"/>
      <path class="st12" d="M776.8,513.1h-26.3v4.5h26.3v-4.5Z"/>
      <path class="st12" d="M776.8,522.8h-26.3v4.5h26.3v-4.5Z"/>
      <path class="st12" d="M776.8,532.4h-26.3v4.5h26.3v-4.5Z"/>
      <path class="st12" d="M776.8,542h-26.3v4.5h26.3v-4.5Z"/>
      <path class="st12" d="M776.8,551.6h-26.3v4.5h26.3v-4.5Z"/>
      <path class="st12" d="M776.8,561.3h-26.3v4.5h26.3v-4.5Z"/>
      <path class="st12" d="M776.8,570.9h-26.3v4.5h26.3v-4.5Z"/>
      <path class="st12" d="M776.8,580.5h-26.3v4.5h26.3v-4.5Z"/>
      <path class="st12" d="M776.8,590.1h-26.3v4.5h26.3v-4.5Z"/>
      <path class="st12" d="M776.8,599.8h-26.3v4.5h26.3v-4.5Z"/>
      <path class="st12" d="M776.8,609.4h-26.3v4.5h26.3v-4.5Z"/>
      <path class="st12" d="M776.8,619h-26.3v4.5h26.3v-4.5Z"/>
      <path class="st12" d="M776.8,628.6h-26.3v4.5h26.3v-4.5Z"/>
      <path class="st12" d="M776.8,638.2h-26.3v4.5h26.3v-4.5Z"/>
      <path class="st33" d="M636.8,648.1h47.5s2.6-8.5-3.1-18.9c0,0-3.8,3.1-15.3,1,0,0-4.8,4.1-8.1,5.6-3.3,1.6-22.3,5.3-21.1,12.3Z"/>
      <path class="st29" d="M640.1,514.3c3.1,18.3,17.2,80.2,23.3,116.7,11.1.9,16.5-.3,19.3-1-.6-12.8-1.6-43.3-1.5-56.6.2-22.6,1.3-52.4-8.7-68.8l-33.5,2.6c.2,1.8.4,3.2.6,4.2.2,1,.3,1.9.5,2.8Z"/>
      <path class="st33" d="M550.9,648.1h47.5s2.6-8.5-3.1-18.9c0,0-3.8,3.1-15.3,1,0,0-4.8,4.1-8.1,5.6-3.3,1.6-22.3,5.3-21.1,12.3Z"/>
      <path class="st28" d="M578.6,630c9.1,2.3,15.6,2,18.8,1.7,2.5-14.7,6.5-47,10.1-62.2,5.6-23.6,11-56,7.2-67.5l-32.9-8.3c-.1,1.1-2.8,100.2-3.2,136.3Z"/>
      <path class="st28" d="M709.7,459.9c-.7-6.5-1.4-11.3-1.4-11.3l-36.8,9-31.2,7.1c-11.6,2.6-25.6,5.7-37.9,8.5-13.9,3.1-23,13.6-20,27.5l3.5,16.8c19.4-.3,110.4-9,118.2-12.9,8.8-4.4,11.5-20.1,5.7-44.7Z"/>
      <path class="st29" d="M764.6,459.9c-.7-6.5-3.8-13.5-3.8-13.5l-34.4,11.2-31.2,7.1c-11.6,2.6-25.6,5.7-37.9,8.5-13.9,3.1-23,13.6-20,27.5l3.5,16.8c19.4-.3,100.3-3.1,118.2-12.9,8.7-4.7,11.5-20.1,5.7-44.7Z"/>
      <path class="st19" d="M661.6,407.2s16.3-7.4,20.8,0c2.5,4.1.8,11.6-4.8,14.7-5.6,3.2-37.1,16.5-66.8,23.9,0,0-1.3-4.1-3.3-8.5,0,0,13.3-5.5,26.6-14.8,13.3-9.3,27.5-15.3,27.5-15.3Z"/>
      <path class="st19" d="M665.7,356.2l-14,55.9s1.4,14.1,15.7,7.2,23.7-51.5,23.7-51.5l-25.5-11.6Z"/>
      <path class="st35" d="M689.4,387.5c-1.7-.4-3.4-.9-5-1.4-1.6-.5-3.2-1-4.7-1.5-13.3-4.6-20.5-10-20.5-10,4.2-18.2,9.2-30.4,13.7-38.4.1-.2.2-.4.3-.6.1-.2.2-.4.4-.6,2.4-4,5.9-7.4,9.7-10.1.4-.3.8-.5,1.2-.8l1.6,29.2.3,3,2.9,31.3Z"/>
      <path class="st32" d="M689.4,387.5c-1.7-.4-3.4-.9-5-1.4-1.6-.5-3.2-1-4.7-1.5,2.8-19.7,5.3-32,5.3-32l1.4,3.6,2.9,31.3Z"/>
      <path class="st35" d="M772.1,337c-.3,8.6-1.9,22.5-3.2,36.4-.4,4.4-.8,8.9-1.2,13.1-.2,2.7-4.3,16.9-4.4,19.5-.7,12.2-6.7,21.3-1,39.9,1.4,4.4,1.7,6.7,1.7,8.6s-1.6,2.6-2.3,3c-2.4,1.4-7,2.3-12.7,3h0c-11.1,1.4-26.2,1.6-35.2,1.6s-30.4-1.9-32.7-5c-2.1-2.8-.2-6.9.8-12.5,4.5-25.4,2.9-38.7,2.6-57,0-.5,0-.9,0-1.4-.5-28.3-2.3-52.5-1-61.3.4-.3.8-.5,1.2-.8,1.9-1.3,3.8-2.5,5.6-3.5.2,0,.4-.2.6-.3.6-.3,1.1-.6,1.7-.9.2-.1.4-.2.6-.3,4.1-2,10.1-4.2,13.6-5.4.4-.1.8-.3,1.2-.4,3.3-.2,6.8-.2,10.6-.1,3.3.1,8.4.5,13.9,1.2h0c6.2.8,13,2,18.4,3.4,0,0,0,0,.1,0,1,.3,7.6,2.8,14.5,10.1,2.2,2.5,4.6,5.5,6.7,9.1Z"/>
      <path class="st32" d="M762.3,445.9c1.4,4.4,1.7,6.7,1.7,8.6s-1.6,2.6-2.3,3c-2.4,1.4-7,2.3-12.7,3,2.3-.3,6.3-4,6.3-7.3s-3-18.1-2.2-28.3c.8-10.1,2.5-26.3-.7-39.3-3.2-12.9-6.1-30-6.1-30l17.7,10.7s2.3,3.2,4.8,7.1c-.4,4.4-.8,8.9-1.2,13.1-.2,2.7-11.1,40.8-5.5,59.3Z"/>
      <path class="st14" d="M684.2,262.2s1.5,18.5,7.7,19.8c6.1,1.2,4.6-6.6,4.6-6.6l-.9-8.8-11.5-4.4Z"/>
      <path class="st19" d="M712.6,329.4c-12-1.4-7.5-13.1-5.9-15.8.4-.1,2.5-.8,2.7-.9,0,0,0,0,0,0,.4-.3.7-.8.9-1.4,1.2-3.1.6-9.2.6-9.6h0v-1.1c.2-.7.4-1.4.6-2.1l6.3-5,13.4-10.5s-3.6,17.6-.7,28.7c.2.8.7,2,1.8,2.7,0,0,0,0,0,0,.4.2.8.4,1.3.5,3.3,1.5-1.3,17-21,14.6Z"/>
      <path class="st22" d="M723.2,294.1s-.1,11.8-12.9,17.2c1.2-3.1.6-9.2.6-9.6l5.3-4.2,6.9-3.4Z"/>
      <path class="st19" d="M687.2,264.8s2.8,38.5,13.2,41.8c0,0,13.2,1.3,22.8-11.5,2.7-3.7,6.2-4.5,7.3-9,1.8-7.2,4.4-20.6,1.1-28.6-4.7-11.4-44-20.5-44.4,7.3Z"/>
      <path class="st14" d="M731.7,251.2c-.2-7-7.3-9.6-7.3-9.6-7-3.3-21.7-1.9-36.8,1.5-3.5.8-8-1.4-10.5.3-3,2.1,0,11.5,0,11.5,5.8,17.6,27.3,11.9,33.7,9.7,1.5,4.5,1.3,10.8,5.1,14.1,2.2,1.9,6,1.9,9.8,1.3.5.9,2.3,1.7,2.6,2.9,1.2,4.1,1,10.6,1,15.5l1.8-.9c.2-1.4,19.1-45.9.4-46.5Z"/>
      <path class="st10" d="M697.8,277.8c.5,3.2-1,6.1-3.5,6.6-2.5.4-5-1.8-5.5-5s1-6.1,3.5-6.6c2.5-.4,4.9,1.8,5.5,5Z"/>
      <path class="st10" d="M710.4,275.5c.5,3.2-1,6.1-3.5,6.6-2.5.4-5-1.8-5.5-5s1-6.1,3.5-6.6c2.5-.4,4.9,1.8,5.5,5Z"/>
      <path class="st10" d="M697.8,277.8s.6-.9,3.5-.6"/>
      <path class="st10" d="M710.5,276.2l10.7-1.7"/>
      <path class="st19" d="M722,288.1c7.4,2.8,9.7-15.4,2.7-16.2-5.3-.6-5.5,6.8-5.5,6.8,0,0-1.4,7.7,2.9,9.3Z"/>
      <g class="st17">
        <g class="st17">
          <path class="st16" d="M724.5,274.7c-1.2,1.4-1.7,2.8-1.8,4.4-.1.8,0,1.6,0,2.4,0,.8.2,1.7.2,2.6-.3-.4-.5-.8-.7-1.1-.2-.4-.4-.8-.5-1.3-.3-.9-.4-1.8-.3-2.7,0-.9.4-1.9.9-2.6.5-.8,1.3-1.4,2.2-1.7Z"/>
        </g>
        <g class="st17">
          <path class="st16" d="M725.6,278.2c-.8.1-1.5.5-2,1-.5.5-.8,1.2-.9,1.9l-1.2-.4c.4-.8,1-1.5,1.8-1.9.7-.4,1.6-.6,2.4-.5Z"/>
        </g>
      </g>
      <path class="st19" d="M793.1,414.6h0c-3.3,3.8-15.6,6.5-21.5,1.3-1.9-1.7-4-6-6-11.5-5.3-13.9-10.2-34.7-10.2-34.7l27.6-14.1s3.6,15.9,6.6,31.1c0,0,0,.2,0,.4,1,4.8,1.9,9.6,2.6,13.7,0,.1,0,.2,0,.3.7,4.9,1.2,10,.8,13.4Z"/>
      <path class="st35" d="M744.9,350.5c2.7,11.1,11,32.1,11,32.1,5.9,1,13.7-.1,20.3-2.4,7.5-2.7,12.9-8.4,12.9-8.4,0,0-5.6-15.6-10.5-26.8-4.5-10.1-7.2-13.8-9.1-15.8-2.9-3.1-7.6-6.6-11-8.1l-13.6,29.6Z"/>
      <path class="st35" d="M779.8,357.7l-16.2-7-12.8-32.9s2.3.7,5.4,1.9h0c0,0,.2,0,.4.2,0,0,.2,0,.2.1,2.8,1.3,13.4,7.6,20.8,30.4,0,.2.1.4.2.6.8,2.6,1.4,4.8,1.7,5.8,0,.1,0,.2,0,.3,0,.2,0,.3.1.5Z"/>
      <path class="st19" d="M793.1,414.6h0c-.2,2-.8,3.5-1.8,4-.2.1-2.4,1.4-2.6,1.6-3.4,2.1-9.5,5.6-17.1,8.8-18.5,8-45.3,17.2-59.8,21.5,0,0-1.4-4.1-3.7-8.3,0,0,13.1-6.1,25.9-15.9,12.9-9.8,31.4-21.8,31.4-21.8l4.7-5.5s16.6-15.3,19.3-12.2c0,0,0,.2,0,.4.4,1.6,1.7,7.5,2.6,13.7,0,.1,0,.2,0,.3.7,4.9,1.2,10,.8,13.4Z"/>
      <path class="st19" d="M710.2,441.2s-3.3,2-6.6,1.3c-1.8-.4-2.6-1.1-3.9-1.4-1.4-.2-5-.7-6.8-1.6-1.8-.9-2.5-1-2.4.8,0,1.8,3.6,3.3,4.5,3.8,1,.5,2.2,2.1,2.3,2.3.1.2-5.9,3.3-7.5,2.7,0,0-.5,1.4-.2,2.3.3.8,1.5,1.1,1.6,1.5,0,.4-.3,1.2,0,1.9.3.6,1.4.6,1.8,1.7.4,1.1,0,1.1.3,2.2.3,1.1,1.7,1.3,2,1.8.3.6.1,1.2.7,1.6.6.4,6-1.3,8-2.2,2-.8,7.2-8.4,13.1-11l-6.9-7.7Z"/>
      <path class="st24" d="M737.8,475h-42v-4.1h42c1.1,0,2.1.9,2.1,2.1s-.9,2.1-2.1,2.1Z"/>
      <path class="st24" d="M715,475h-105.2c-1.3,0-2.4-.8-2.7-2.1l-21.5-77.4c-.5-1.7.8-3.4,2.6-3.4h101.7c2.4,0,4.5,1.6,5.1,3.9l21.4,77.2c.3,1-.4,1.9-1.4,1.9Z"/>
      <path class="st13" d="M711.2,475h-105.2c-1.3,0-2.4-.8-2.7-2.1l-21.5-77.4c-.5-1.7.8-3.4,2.6-3.4h101.7c2.4,0,4.5,1.6,5.1,3.9l21.4,77.2c.3,1-.4,1.9-1.4,1.9Z"/>
      <path class="st31" d="M294.5,425l12.2-12.5s.4-5.6,1.1-6.7c.7-1.2,2.4-5.5,3.2-6,.9-.5,2.6,0,2.6,0,0,0,1.7-.6,2.4-.6s2.2.7,2.2.7c0,0,1.8-.1,2.6-.1s1,.2,1,.2c0,0,2.9-3.4,4.4-4.5,1.4-1.1,3.6-3.2,4.2-3.2.6,0,.9,1.1.4,2.2-.4,1.1-2.4,3-2.4,3l-5.5,8.4s.9-.4,1.4-.7c.5-.3,3.9-3.5,4.1-3.6.2-.1,1.7-1.1,2.6-.1.9,1-5.8,9-6.9,10.1-1.1,1.1-7.2,4.2-7.2,4.2,0,0-6.5,11.7-7.1,12.4-.6.8-15.3-3.2-15.3-3.2Z"/>
      <path class="st31" d="M305.9,367.4s-6.8,39.4-13.2,40.3c0,0-25.6,1-31.3-30-4.9-26.9,14.9-32.6,24.1-30.6,9.3,2.1,22.3,3.4,20.3,20.2Z"/>
      <path class="st31" d="M283.3,401.4s-3.6,4.8-4.8,16.5c0,0-10.7,1.5-20.5-3.5,0,0,5.3-16.5,5.9-34.4"/>
      <path class="st14" d="M276.1,340.5c-14,3.1-12.9,11.8-12.9,11.8-6.5,1.6-8,4.3-7.9,16.4,0,12.1,4.4,26.6,6.8,27.7,2.4,1.2,16.1,1.2,17.2.8,1.1-.4,5.9-11.5,4.8-13.4-1.1-1.9,0-9.6,3.2-9.9,3.2-.3,2.6,4.6,2.6,4.6l2.6-.6,2-4.9c18.5,1.1,23.2-19.9,23.2-19.9-4.4-2.9-27.8-15.7-41.8-12.6Z"/>
      <path class="st19" d="M121,607.2l14.1,2-4.7,16.5-15.3-3.9s-6.2-8.4,3.2-14.7c.5-.3,1.9-.2,2.7,0Z"/>
      <path class="st28" d="M226.5,564.9l-20.8-63s-6.3-2.3-9.5,0c0,0-21.7,11.7-19.4,44.9,1.8,25.1,7,52.2,9.2,63.1l-55.6-2.1s-6.8,8.1-2.4,18.7c0,0,69.8,18.8,79.6,20.5,8,1.4,16.7,2.5,21-1.1,7.4-6.4-2.1-81.1-2.1-81.1Z"/>
      <path class="st19" d="M186.8,607.2l14.1,2-4.7,16.5-15.3-3.9s-6.2-8.4,3.2-14.7c.5-.3,1.9-.2,2.7,0Z"/>
      <path class="st13" d="M181.6,615.9c-.3,3.3,2.5,6.2,2,7-.5.8-10,16.7-10,16.7,0,0,7.2,3.1,6,7.6h-18.1s-4.7-4.3-4.6-10.4c0,0,1.2-7.1,4.5-13.3,3.2-6.2,10.6-20.3,10.6-20.3,0,0,2.2-.9,6.1.1,4.5,1.2,8.8,3.9,8.8,3.9,0,0-4.3.6-5.1,8.6Z"/>
      <path class="st29" d="M327.1,632.8c-4.5-16.7-46.7-88.1-60.9-107.4-29.3-12.7-60.5-23.5-60.5-23.5-12.9,3.1-19.3,29.1-12,46.5,5,11.9,36.9,41.8,56.4,59.5h-54.2c0,0-6.4,9.5-.6,18.5,0,0,90.1,20.5,98,21.6,7.9,1.2,25.6,0,25.6,0,0,0,11.9-1.1,8.1-15.2Z"/>
      <path class="st13" d="M115.9,615.9c-.3,3.3,2.5,6.2,2,7-.5.8-10,16.7-10,16.7,0,0,7.2,3.1,6,7.6h-18.1s-4.7-4.3-4.6-10.4c0,0,1.2-7.1,4.5-13.3,3.2-6.2,10.6-20.3,10.6-20.3,0,0,2.2-.9,6.1.1,4.5,1.2,8.8,3.9,8.8,3.9,0,0-4.3.6-5.1,8.6Z"/>
      <path class="st31" d="M395,412.8l-29.1,51.1-20.8-20.7-17.2,25.6,5,2.4-1.8,1.5s40.2,19.5,45,15.2c4.8-4.3,27.2-69.3,27.2-69.3l-8.3-5.8Z"/>
      <path class="st25" d="M348.8,446.5s-5.5,23.1-16.5,34.1l-28.1-10.7s-13,21.9-25.8,38.7c-4.9,6.5-6.5,15.6-12.3,16.8-.4-.1-.7-.2-1.1-.3-15.6-4.7-38.6.3-57.6-6.8-21-7.8-16.9-12.2-16.9-12.2,0,0,12.7-22.9,19.9-47.2,3.2-10.7,5.5-20.7,6.9-28.5,2.7-13.8,13.7-24.5,27.6-26.4.2,0,.3,0,.5,0,15.9-2,57.6,2.9,65.6,6.4,8.1,3.5,37.6,36.1,37.6,36.1Z"/>
      <path class="st11" d="M304.2,469.9s-13,21.9-25.8,38.7c-4.9,6.5-6.5,15.6-12.3,16.8,2.5-.9,6.7-14.2,8.2-17.1,1.5-3,3.9-5.9,9-16.4,5.1-10.4,12.1-25.7,12.1-25.7l8.7,3.7Z"/>
      <path d="M250.1,607.8c4.7-.8,9.6-.7,14.3,0,2.4.3,4.7.8,7,1.5,2.3.6,4.5,1.5,6.7,2.6l-7-1.1c-2.3-.4-4.6-.7-7-1-4.6-.7-9.3-1.2-14-1.8Z"/>
      <path class="st31" d="M416.7,394.1c-.5,0-3.4,2.3-4.9,3.5l1.7-3.2s2.2-2.1,3-3.3c.8-1.2.4-2.3-.2-2.4-.4,0-3.1,2-4.6,3.3l.3-.6s2.2-2.1,3-3.3c.8-1.2.4-2.3-.3-2.4-.6,0-5.7,4.2-5.7,4.2l-2.4,3.3,1.9-3.6s1-1.2,1.6-2.5c.6-1.3.2-1.7-.2-2.1-.4-.4-3.8,2.1-4.6,3.1-.9,1-3.6,5.1-3.8,5.7l-2.8,5.9c-.2-1.7-.5-4.6-.7-6.5-.3-2.7-2.7-3.3-2.8-2,0,1.3-1.4,7.7-1.1,11.1.3,3.5.9,5.7,1.1,7.7.2,1.9-1.8,5.8-1.8,5.8,0,0,8.1,5,9.4,3.5,1.3-1.5,4.2-4.8,5.6-7.1,1.9-3.1,3.2-7.1,3.2-7.1l2.5-5.4s2.2-2.1,3-3.3c.8-1.2.3-2.3-.3-2.4Z"/>
      <path class="st2" d="M880.9,231.3h-94.9c-6.1,0-11,4.9-11,11v22.4c0,5.6,4.2,10.2,9.6,10.9.8.1,1.4.8,1.4,1.6v12.3c0,.7.9,1,1.3.4l9.7-13.5c.3-.4.8-.7,1.3-.7h82.6c6.1,0,11-4.9,11-11v-22.4c0-6.1-4.9-11-11-11Z"/>
      <path class="st2" d="M800.6,253.5c0,2-1.6,3.6-3.6,3.6s-3.6-1.6-3.6-3.6,1.6-3.6,3.6-3.6,3.6,1.6,3.6,3.6Z"/>
      <path class="st2" d="M818.9,253.5c0,2-1.6,3.6-3.6,3.6s-3.6-1.6-3.6-3.6,1.6-3.6,3.6-3.6,3.6,1.6,3.6,3.6Z"/>
      <path class="st2" d="M837.1,253.5c0,2-1.6,3.6-3.6,3.6s-3.6-1.6-3.6-3.6,1.6-3.6,3.6-3.6,3.6,1.6,3.6,3.6Z"/>
      <path class="st2" d="M855.4,253.5c0,2-1.6,3.6-3.6,3.6s-3.6-1.6-3.6-3.6,1.6-3.6,3.6-3.6,3.6,1.6,3.6,3.6Z"/>
      <path class="st2" d="M873.6,253.5c0,2-1.6,3.6-3.6,3.6s-3.6-1.6-3.6-3.6,1.6-3.6,3.6-3.6,3.6,1.6,3.6,3.6Z"/>
      <path class="st2" d="M131.5,329.5h94.8c6.1,0,11,4.9,11,11v22.4c0,5.6-4.2,10.2-9.6,10.9-.8.1-1.4.8-1.4,1.6v12.3c0,.7-.9,1-1.3.4l-9.7-13.5c-.3-.4-.8-.7-1.3-.7h-82.5c-6.1,0-11-4.9-11-11v-22.4c0-6.1,4.9-11,11-11Z"/>
      <path class="st2" d="M211.8,351.7c0,2,1.6,3.6,3.6,3.6s3.6-1.6,3.6-3.6-1.6-3.6-3.6-3.6c-2,0-3.6,1.6-3.6,3.6Z"/>
      <path class="st2" d="M193.5,351.7c0,2,1.6,3.6,3.6,3.6s3.6-1.6,3.6-3.6-1.6-3.6-3.6-3.6c-2,0-3.6,1.6-3.6,3.6Z"/>
      <path class="st2" d="M175.3,351.7c0,2,1.6,3.6,3.6,3.6s3.6-1.6,3.6-3.6-1.6-3.6-3.6-3.6c-2,0-3.6,1.6-3.6,3.6Z"/>
      <path class="st2" d="M157,351.7c0,2,1.6,3.6,3.6,3.6s3.6-1.6,3.6-3.6-1.6-3.6-3.6-3.6c-2,0-3.6,1.6-3.6,3.6Z"/>
      <path class="st2" d="M138.8,351.7c0,2,1.6,3.6,3.6,3.6s3.6-1.6,3.6-3.6-1.6-3.6-3.6-3.6c-2,0-3.6,1.6-3.6,3.6Z"/>
      <path class="st8" d="M701.8,161.2c0,5.1-4.1,9.2-9.2,9.2s-9.2-4.1-9.2-9.2,4.1-9.2,9.2-9.2,9.2,4.1,9.2,9.2Z"/>
      <path class="st9" d="M699.1,167.7l5.1,5.1"/>
      <path class="st25" d="M442.4,648.9h-43.5c-7.6,0-13.8-6.2-13.8-13.8v-43.5c0-7.6,6.2-13.8,13.8-13.8h43.5c7.6,0,13.8,6.2,13.8,13.8v43.5c0,7.6-6.2,13.8-13.8,13.8Z"/>
      <path class="st13" d="M429.5,648.9h-43.5c-7.6,0-13.8-6.2-13.8-13.8v-43.5c0-7.6,6.2-13.8,13.8-13.8h43.5c7.6,0,13.8,6.2,13.8,13.8v43.5c0,7.6-6.2,13.8-13.8,13.8Z"/>
      <path class="st12" d="M399.3,600l20.4,11.8c1.3.7,1.3,2.5,0,3.3l-20.4,11.8c-1.3.7-2.8-.2-2.8-1.6v-23.5c0-1.5,1.6-2.4,2.8-1.7Z"/>
      <path class="st26" d="M892.3,648.9h-56.9c-9.9,0-18-8.1-18-18v-56.8c0-9.9,8.1-18,18-18h56.9c9.9,0,18,8.1,18,18v56.8c0,10-8.1,18-18,18Z"/>
      <path class="st13" d="M875.3,648.9h-56.9c-9.9,0-18-8.1-18-18v-56.8c0-9.9,8.1-18,18-18h56.9c9.9,0,18,8.1,18,18v56.8c0,10-8.1,18-18,18Z"/>
      <path class="st35" d="M639.2,199.5h-36.5c-1.5,0-2.8-1.2-2.8-2.8s1.2-2.8,2.8-2.8h36.5c1.5,0,2.8,1.2,2.8,2.8,0,1.5-1.2,2.8-2.8,2.8Z"/>
      <path class="st35" d="M675.8,199.5h-26.4c-1.5,0-2.8-1.2-2.8-2.8s1.2-2.8,2.8-2.8h26.4c1.5,0,2.8,1.2,2.8,2.8,0,1.5-1.3,2.8-2.8,2.8Z"/>
      <path class="st35" d="M618.2,211.6h-15.5c-1.5,0-2.8-1.2-2.8-2.8s1.2-2.8,2.8-2.8h15.5c1.5,0,2.8,1.2,2.8,2.8s-1.2,2.8-2.8,2.8Z"/>
      <path class="st35" d="M675.8,211.6h-48.3c-1.5,0-2.8-1.2-2.8-2.8s1.2-2.8,2.8-2.8h48.3c1.5,0,2.8,1.2,2.8,2.8,0,1.5-1.3,2.8-2.8,2.8Z"/>
      <path class="st35" d="M650.8,223.7h-48.1c-1.5,0-2.8-1.2-2.8-2.8s1.2-2.8,2.8-2.8h48.1c1.5,0,2.8,1.2,2.8,2.8,0,1.5-1.2,2.8-2.8,2.8Z"/>
      <path class="st35" d="M675.8,223.7h-15.5c-1.5,0-2.8-1.2-2.8-2.8s1.2-2.8,2.8-2.8h15.5c1.5,0,2.8,1.2,2.8,2.8,0,1.5-1.3,2.8-2.8,2.8Z"/>
      <path class="st26" d="M176.9,479.7H49.4c-3.8,0-6.8-3.1-6.8-6.8v-64.3c0-3.8,3.1-6.8,6.8-6.8h127.5c3.8,0,6.8,3.1,6.8,6.8v64.3c0,3.8-3.1,6.8-6.8,6.8Z"/>
      <path class="st3" d="M48.6,412.2h129.1"/>
      <path class="st35" d="M174.3,408.4c.9,0,1.6-.7,1.6-1.6s-.7-1.6-1.6-1.6-1.6.7-1.6,1.6.7,1.6,1.6,1.6Z"/>
      <path class="st35" d="M166.1,408.4c.9,0,1.6-.7,1.6-1.6s-.7-1.6-1.6-1.6-1.6.7-1.6,1.6.7,1.6,1.6,1.6Z"/>
      <path class="st35" d="M158,408.4c.9,0,1.6-.7,1.6-1.6s-.7-1.6-1.6-1.6-1.6.7-1.6,1.6.7,1.6,1.6,1.6Z"/>
      <path class="st27" d="M72.6,422.7h-21.9c-1.2,0-2.2-1-2.2-2.2s1-2.2,2.2-2.2h21.9c1.2,0,2.2,1,2.2,2.2s-1,2.2-2.2,2.2Z"/>
      <path class="st27" d="M72.6,432.7h-21.9c-1.2,0-2.2-1-2.2-2.2s1-2.2,2.2-2.2h21.9c1.2,0,2.2,1,2.2,2.2s-1,2.2-2.2,2.2Z"/>
      <path class="st27" d="M72.6,442.7h-21.9c-1.2,0-2.2-1-2.2-2.2s1-2.2,2.2-2.2h21.9c1.2,0,2.2,1,2.2,2.2s-1,2.2-2.2,2.2Z"/>
      <path class="st27" d="M72.6,452.6h-21.9c-1.2,0-2.2-1-2.2-2.2s1-2.2,2.2-2.2h21.9c1.2,0,2.2,1,2.2,2.2s-1,2.2-2.2,2.2Z"/>
      <path class="st27" d="M72.6,462.6h-21.9c-1.2,0-2.2-1-2.2-2.2s1-2.2,2.2-2.2h21.9c1.2,0,2.2,1,2.2,2.2s-1,2.2-2.2,2.2Z"/>
      <path class="st27" d="M72.6,472.6h-21.9c-1.2,0-2.2-1-2.2-2.2s1-2.2,2.2-2.2h21.9c1.2,0,2.2,1,2.2,2.2s-1,2.2-2.2,2.2Z"/>
      <path class="st36" d="M175.5,422.7h-94.4c-1.2,0-2.2-1-2.2-2.2s1-2.2,2.2-2.2h94.4c1.2,0,2.2,1,2.2,2.2s-1,2.2-2.2,2.2Z"/>
      <path class="st36" d="M175.5,432.7h-94.4c-1.2,0-2.2-1-2.2-2.2s1-2.2,2.2-2.2h94.4c1.2,0,2.2,1,2.2,2.2s-1,2.2-2.2,2.2Z"/>
      <path class="st36" d="M175.5,442.7h-94.4c-1.2,0-2.2-1-2.2-2.2s1-2.2,2.2-2.2h94.4c1.2,0,2.2,1,2.2,2.2s-1,2.2-2.2,2.2Z"/>
      <path class="st36" d="M175.5,452.6h-94.4c-1.2,0-2.2-1-2.2-2.2s1-2.2,2.2-2.2h94.4c1.2,0,2.2,1,2.2,2.2s-1,2.2-2.2,2.2Z"/>
      <path class="st36" d="M175.5,462.6h-94.4c-1.2,0-2.2-1-2.2-2.2s1-2.2,2.2-2.2h94.4c1.2,0,2.2,1,2.2,2.2s-1,2.2-2.2,2.2Z"/>
      <path class="st36" d="M175.5,472.6h-94.4c-1.2,0-2.2-1-2.2-2.2s1-2.2,2.2-2.2h94.4c1.2,0,2.2,1,2.2,2.2s-1,2.2-2.2,2.2Z"/>
      <g class="st17">
        <path class="st4" d="M762.1,23.6l-2.9-5"/>
        <path class="st4" d="M817.2,38.8l5-2.9"/>
        <path class="st4" d="M802,93.9l2.9,5"/>
        <path class="st4" d="M746.9,78.7l-5,2.9"/>
      </g>
      <g class="st17">
        <path class="st4" d="M747.2,38.3l-5-2.9"/>
        <path class="st4" d="M802.5,23.9l2.9-5"/>
        <path class="st4" d="M816.9,79.3l5,2.9"/>
        <path class="st4" d="M761.6,93.6l-2.9,5"/>
      </g>
      <path class="st25" d="M97.2,331.8h-63.8c-9.4,0-17.1-7.6-17.1-17.1v-63.8c0-9.4,7.6-17.1,17.1-17.1h63.8c9.4,0,17.1,7.6,17.1,17.1v63.8c0,9.5-7.7,17.1-17.1,17.1Z"/>
      <path class="st21" d="M93,323.3H22.4c-7.6,0-13.7-6.1-13.7-13.7v-70.6c0-7.6,6.1-13.7,13.7-13.7h70.6c7.6,0,13.7,6.1,13.7,13.7v70.6c0,7.6-6.1,13.7-13.7,13.7Z"/>
      <path class="st26" d="M863.7,466.2h-37.6c-5.6,0-10.1-4.5-10.1-10.1v-37.5c0-5.6,4.5-10.1,10.1-10.1h37.6c5.6,0,10.1,4.5,10.1,10.1v37.5c0,5.6-4.5,10.1-10.1,10.1Z"/>
      <path class="st21" d="M861.3,461.2h-41.6c-4.5,0-8.1-3.6-8.1-8.1v-41.5c0-4.4,3.6-8.1,8.1-8.1h41.6c4.5,0,8.1,3.6,8.1,8.1v41.5c0,4.4-3.6,8.1-8.1,8.1Z"/>
      <path class="st34" d="M167.2,283h-22.3c-1.4,0-2.4-1.1-2.4-2.4s1.1-2.4,2.4-2.4h22.3c1.4,0,2.4,1.1,2.4,2.4s-1.1,2.4-2.4,2.4Z"/>
      <path class="st34" d="M189.7,293.9h-44.8c-1.4,0-2.4-1.1-2.4-2.4s1.1-2.4,2.4-2.4h44.8c1.4,0,2.4,1.1,2.4,2.4s-1.1,2.4-2.4,2.4Z"/>
      <path class="st34" d="M150.2,304.7h-5.3c-1.4,0-2.4-1.1-2.4-2.4s1.1-2.4,2.4-2.4h5.3c1.4,0,2.4,1.1,2.4,2.4s-1.1,2.4-2.4,2.4Z"/>
      <path class="st34" d="M189.7,304.7h-31.2c-1.4,0-2.4-1.1-2.4-2.4s1.1-2.4,2.4-2.4h31.2c1.4,0,2.4,1.1,2.4,2.4s-1.1,2.4-2.4,2.4Z"/>
      <path class="st34" d="M189.7,283h-13.5c-1.4,0-2.4-1.1-2.4-2.4s1.1-2.4,2.4-2.4h13.5c1.4,0,2.4,1.1,2.4,2.4s-1.1,2.4-2.4,2.4Z"/>
      <path class="st35" d="M56.3,565.9c-2.9,0-5.6.8-8,2.2-.9-8.3-8-14.8-16.6-14.8s-16.7,7.5-16.7,16.7,0,1.2.1,1.8c-.8-.1-1.6-.2-2.4-.2-7,0-12.8,5.7-12.8,12.8s5.7,12.8,12.8,12.8h43.5c8.6,0,15.6-7,15.6-15.6,0-8.6-7-15.6-15.6-15.6Z"/>
      <path class="st0" d="M25.4,648.1h905.9"/>
    </g>
    <image width="480" height="288" transform="translate(696.8 5.3) scale(.4)" xlink:href="C:\Users\Faaiz\Downloads\digital-clock.png"/>
    <image width="2092" height="701" transform="translate(342 110.5) scale(0)" xlink:href="iqrew-logo.png"/>
    <g>
      <path class="st13" d="M851.8,422.6l-2.2,1.3c-3.8-6.2-11.9-8.3-18.1-4.5-6.2,3.8-8.3,11.9-4.5,18.1l-2.2,1.3c-4.5-7.4-2.1-17.1,5.4-21.6,7.4-4.5,17.1-2.1,21.6,5.4Z"/>
      <path class="st13" d="M832.9,446.8c.7,1.2.3,2.8-.9,3.5l-2.1,1.3c-1.2.7-2.8.3-3.5-.9l-6.2-10.3c-.7-1.2-.3-2.8.9-3.5l2.1-1.3c1.2-.7,2.8-.3,3.5.9l6.2,10.3Z"/>
      <path class="st13" d="M861.4,429.6c.7,1.2.3,2.8-.9,3.5l-2.1,1.3c-1.2.7-2.8.3-3.5-.9l-6.2-10.3c-.7-1.2-.3-2.8.9-3.5l2.1-1.3c1.2-.7,2.8-.3,3.5.9l6.2,10.3Z"/>
    </g>
  </g>
  <g>
    <path class="st26" d="M375.2,296.9c-1.2,3.1-12.2,4.7-23.5.4-11.3-4.3-18.5-12.8-17.4-15.9l6.9-18.1c5.7-4.1,13.6,4,20.8,6.7,7.4,2.8,18.6,1.8,20.1,8.8l-6.9,18.1Z"/>
    <g>
      <path class="st13" d="M357,281.8c-.3,0-.5-.1-.7-.3l-21.1-22.4c-.3-.3-.3-.7-.2-1.1.2-.3.5-.6.9-.6s29.9,1.8,29.9,1.8c.2,0,.4.1.6.3l22.7,20.6c.3.3.4.7.3,1.1-.1.4-.5.6-.9.6h-31.5Z"/>
      <path class="st13" d="M389.8,279.4l-22.7-20.6c-.3-.3-.8-.5-1.2-.5l-29.9-1.8s0,0-.1,0c-.8,0-1.5.4-1.8,1.1-.3.7-.2,1.6.4,2.2l21.1,22.4c.4.4.9.6,1.4.6h31.5c.8,0,1.5-.5,1.8-1.3.3-.8,0-1.6-.5-2.2ZM357,280.8l-21.1-22.4,29.9,1.8,22.7,20.6h-31.5Z"/>
    </g>
    <path class="st12" d="M379.1,309.1c-.5,0-1-.4-1-1v-21l-16.8-16.4c-.4-.4-.4-1,0-1.4.4-.4,1-.4,1.4,0l17.1,16.6c.2.2.3.4.3.7v21.4c0,.5-.4,1-1,1Z"/>
    <path class="st23" d="M383.4,311.7c0,1.6-1.2,2.9-2.8,2.9h-2.9c-1.6,0-2.9-1.2-2.9-2.8v-3.9c0-1.6,1.2-5.7,2.8-5.7h2.9c1.6,0,2.9,4.1,2.9,5.6v3.9Z"/>
  </g>
  <g>
    <g>
      <path class="st25" d="M48.2,257.7H13.8c-.6,0-1,.4-1,1v20.6c0,.6.4,1,1,1h13.7v1.6h-6.9c-.5,0-.8.4-.8.8v.6c0,.5.4.8.8.8h20.7c.5,0,.8-.4.8-.8v-.6c0-.5-.4-.8-.8-.8h-6.9v-1.6h13.7c.6,0,1-.5,1-1v-20.6c0-.6-.4-1-1-1Z"/>
      <rect class="st15" x="16.4" y="260.3" width="29.3" height="17.3"/>
    </g>
    <g>
      <path class="st25" d="M86.7,285.2c.6,0,1.1.5,1.1,1.1v20.1c0,.6-.5,1.1-1.1,1.1h-32.2c-.6,0-1.1-.5-1.1-1.1v-20.1c0-.6.5-1.1,1.1-1.1h32.2Z"/>
      <rect class="st15" x="56" y="287.8" width="28.2" height="17.1"/>
      <g>
        <path class="st15" d="M85.9,295.4c.5,0,1,.4,1,1h0c0,.5-.4,1-1,1h0c-.5,0-1-.4-1-1h0c0-.5.4-1,1-1h0Z"/>
        <path class="st15" d="M85.9,290.9c.2,0,.4.2.4.4v2.3c0,.2-.2.4-.4.4h0c-.2,0-.4-.2-.4-.4v-2.3c0-.2.2-.4.4-.4h0Z"/>
        <path class="st15" d="M85.9,298.8c.2,0,.4.2.4.4v2.2c0,.2-.2.4-.4.4h0c-.2,0-.4-.2-.4-.4v-2.2c0-.2.2-.4.4-.4h0Z"/>
      </g>
    </g>
    <g>
      <path class="st25" d="M66.7,242.4h12.5c.4,0,.7.3.7.7v20.1c0,.4-.3.7-.7.7h-12.5c-.4,0-.7-.3-.7-.7v-20.1c0-.4.3-.7.7-.7Z"/>
      <rect class="st15" x="67.6" y="244" width="10.7" height="17.6"/>
      <g>
        <path class="st15" d="M73.6,262.7c0,.3-.3.6-.6.6h0c-.3,0-.6-.3-.6-.6h0c0-.3.3-.6.6-.6h0c.3,0,.6.3.6.6h0Z"/>
        <path class="st15" d="M76.4,262.7c0,.1-.1.2-.2.2h-1.4c-.1,0-.2-.1-.2-.2h0c0-.1.1-.2.2-.2h1.4c.1,0,.2.1.2.2h0Z"/>
        <path class="st15" d="M71.5,262.7c0,.1-.1.2-.2.2h-1.4c-.1,0-.2-.1-.2-.2h0c0-.1.1-.2.2-.2h1.4c.1,0,.2.1.2.2h0Z"/>
      </g>
    </g>
    <path class="st12" d="M29.4,272.1v-.6c0-.7.1-1.3.4-1.8.3-.5.7-1,1.4-1.5.8-.6,1.3-1.1,1.5-1.4.2-.3.3-.8.3-1.2s-.2-1-.6-1.3c-.4-.3-.9-.4-1.6-.4s-1.2,0-1.7.3c-.5.2-1.1.4-1.6.6l-.8-1.7c1.3-.7,2.8-1.1,4.3-1.1s2.3.3,3.1.9c.8.6,1.1,1.5,1.1,2.6s0,.9-.2,1.3c-.1.4-.4.8-.7,1.1-.3.3-.8.8-1.5,1.4-.6.5-1,.9-1.2,1.2-.2.3-.3.7-.3,1.3v.4h-1.9ZM29,275.3c0-1,.5-1.5,1.5-1.5s.8.1,1.1.4c.3.3.4.6.4,1.1s-.1.8-.4,1.1c-.3.3-.6.4-1.1.4s-.8-.1-1.1-.4c-.2-.3-.4-.6-.4-1.1Z"/>
    <path class="st26" d="M71.5,258.1c0-.5.1-.9.4-1.1.3-.2.6-.4,1.1-.4s.8.1,1.1.4c.2.3.4.6.4,1.1s-.1.8-.4,1.1c-.3.3-.6.4-1.1.4s-.8-.1-1.1-.4c-.3-.3-.4-.6-.4-1.1ZM73.9,254.9h-1.7l-.5-10h2.7l-.5,10Z"/>
    <g>
      <path class="st12" d="M60,296.8c0-.6.2-1.1.5-1.4.3-.3.8-.5,1.4-.5s1.1.2,1.4.5c.3.3.5.8.5,1.4s-.2,1.1-.5,1.4c-.3.4-.8.5-1.4.5s-1.1-.2-1.4-.5c-.3-.3-.5-.8-.5-1.4Z"/>
      <path class="st12" d="M67.7,296.8c0-.6.2-1.1.5-1.4.3-.3.8-.5,1.4-.5s1.1.2,1.4.5c.3.3.5.8.5,1.4s-.2,1.1-.5,1.4c-.3.4-.8.5-1.4.5s-1.1-.2-1.4-.5c-.3-.3-.5-.8-.5-1.4Z"/>
      <path class="st12" d="M75.4,296.8c0-.6.2-1.1.5-1.4.3-.3.8-.5,1.4-.5s1.1.2,1.4.5c.3.3.5.8.5,1.4s-.2,1.1-.5,1.4c-.3.4-.8.5-1.4.5s-1.1-.2-1.4-.5c-.3-.3-.5-.8-.5-1.4Z"/>
    </g>
    <g>
      <g>
        <path class="st25" d="M51.5,250.3c0,1.4-.4,2.5-1.1,3.3-.7.8-1.7,1.2-3,1.2s-1.5-.2-2.1-.5c-.6-.4-1.1-.9-1.4-1.5-.3-.7-.5-1.5-.5-2.3,0-1.4.4-2.5,1.1-3.2.7-.8,1.7-1.2,3-1.2s2.2.4,2.9,1.2c.7.8,1.1,1.9,1.1,3.2ZM45.3,250.3c0,2,.7,2.9,2.2,2.9s2.2-1,2.2-2.9-.7-2.9-2.2-2.9-1.3.3-1.6.8c-.3.5-.5,1.2-.5,2.2Z"/>
        <path class="st25" d="M47.4,255c-.8,0-1.6-.2-2.2-.6-.7-.4-1.2-.9-1.5-1.7-.3-.7-.5-1.5-.5-2.5,0-1.4.4-2.6,1.1-3.4.8-.8,1.8-1.2,3.2-1.2s2.4.4,3.1,1.3c.8.8,1.1,2,1.1,3.4s-.4,2.6-1.1,3.4c-.8.8-1.8,1.3-3.2,1.3ZM47.5,246.1c-1.2,0-2.1.4-2.8,1.1-.7.7-1,1.7-1,3s.2,1.6.5,2.2c.3.6.7,1.1,1.3,1.4.6.3,1.2.5,2,.5,1.2,0,2.1-.4,2.8-1.1.7-.7,1-1.8,1-3.1s-.3-2.3-1-3c-.7-.7-1.6-1.1-2.7-1.1ZM47.5,253.5c-1.1,0-2.4-.6-2.4-3.2s.2-1.8.6-2.3c.4-.6,1-.9,1.9-.9s2.4.6,2.4,3.2-1.3,3.2-2.4,3.2ZM47.4,247.6c-.7,0-1.1.2-1.4.6-.3.5-.5,1.1-.5,2,0,1.8.6,2.7,1.9,2.7s1.9-.9,1.9-2.7-1.1-2.6-1.9-2.6Z"/>
      </g>
      <g>
        <path class="st25" d="M56.4,257.2h-3.8v-.7l1.4-1.5c.4-.4.7-.7.9-.9.1-.2.2-.4.3-.5,0-.2,0-.3,0-.5s0-.5-.2-.6c-.2-.1-.4-.2-.6-.2s-.4,0-.6.1c-.2,0-.4.2-.7.4l-.5-.6c.3-.3.6-.5.9-.6.3-.1.6-.2.9-.2.5,0,.9.1,1.3.4.3.3.5.6.5,1.1s0,.5-.1.7-.2.5-.4.7c-.2.2-.5.6-.9,1l-1,.9h0s2.7,0,2.7,0v.8Z"/>
        <path class="st25" d="M56.4,257.4h-3.8c-.1,0-.3-.1-.3-.3v-.7c0,0,0-.1,0-.2l1.4-1.5c.4-.4.7-.7.8-.9.1-.2.2-.3.3-.5,0-.1,0-.3,0-.4s0-.3-.1-.4c-.2-.2-.6-.2-1,0-.2,0-.4.2-.6.4-.1,0-.3,0-.4,0l-.5-.6c0-.1,0-.3,0-.4.3-.3.7-.5,1-.6.3-.1.7-.2,1-.2.6,0,1.1.2,1.4.5.4.3.6.8.6,1.3s0,.6-.2.8c0,.3-.3.5-.5.8-.2.3-.5.6-1,1l-.5.5h2c.1,0,.3.1.3.3v.8c0,.1-.1.3-.3.3ZM52.9,256.9h3.3v-.3h-2.4c-.1,0-.3-.1-.3-.3s0-.2,0-.2l1-.9c.4-.4.7-.7.9-1,.2-.2.3-.4.4-.6,0-.2.1-.4.1-.6,0-.4-.1-.7-.4-.9-.3-.2-.6-.3-1.1-.3s-.6,0-.8.1c-.2,0-.4.2-.6.3l.2.2c.2-.1.4-.2.6-.3.5-.2,1.2-.2,1.5.2.2.2.3.5.3.8s0,.4-.1.6c0,.2-.2.4-.3.6-.1.2-.4.5-.9,1l-1.4,1.4v.3Z"/>
      </g>
    </g>
    <g>
      <path class="st25" d="M27.6,298.8c.8,0,1.4.2,1.9.7.5.4.7,1.1.7,1.8s-.3,1.6-.9,2.1c-.6.5-1.4.7-2.4.7s-1.7-.1-2.2-.4v-1.5c.3.2.6.3,1,.4.4,0,.8.1,1.1.1,1.1,0,1.6-.4,1.6-1.3s-.5-1.2-1.6-1.2-.4,0-.7,0c-.2,0-.4,0-.6.1l-.7-.4.3-4.2h4.5v1.5h-2.9l-.2,1.6h.2c.2,0,.5-.1.9-.1Z"/>
      <path class="st25" d="M33.7,305.1s0,0-.1,0c-.4,0-.7-.4-.8-.8l-1.7-10.2h-5.1c-.5,0-1-.4-1-1s.4-1,1-1h5.9c.5,0,.9.3.9.8l1.3,8,6.3-12.8c.2-.3.5-.5.9-.5h8c.5,0,1,.4,1,1s-.4,1-1,1h-7.4l-7.4,15c-.2.3-.5.5-.9.5Z"/>
    </g>
    <g>
      <path class="st25" d="M64.6,273.3c-.5,0-1,0-1.5.2-.5.1-1,.3-1.5.5-.1,0-.2.2-.1.3l.5,1.2c0,0,0,.1.1.1,0,0,.1,0,.2,0,.3-.2.7-.3,1.1-.4.3-.1.7-.2,1.1-.2s.7,0,.9.3c.2.2.3.5.3,1v.2h-1.1c-1.3,0-2.3.3-2.9.8-.7.5-1,1.2-1,2.1s.2,1.5.7,2c.5.5,1.2.7,2,.7s1.2,0,1.6-.3c.3-.2.7-.4,1-.8l.2.7c0,0,.1.2.2.2h1.2c.1,0,.2-.1.2-.2v-5.4c0-1-.3-1.8-.9-2.3-.6-.5-1.4-.7-2.4-.7ZM65.7,278.1v.4c0,.6-.2,1-.5,1.3-.3.3-.8.5-1.3.5s-.6,0-.8-.2c-.2-.1-.2-.4-.2-.6s.1-.7.4-.9c.3-.2.9-.3,1.6-.4h.8Z"/>
      <path class="st25" d="M76.5,275.6h-2.6v-2.7c0-.1-.1-.2-.2-.2h-1.3c-.1,0-.2.1-.2.2v2.7h-2.6c-.1,0-.2.1-.2.2v1.3c0,.1.1.2.2.2h2.6v2.7c0,.1.1.2.2.2h1.3c.1,0,.2-.1.2-.2v-2.7h2.6c.1,0,.2-.1.2-.2v-1.3c0-.1-.1-.2-.2-.2Z"/>
      <path class="st25" d="M82.5,273.3c-.9,0-1.6.3-2.2.8,0,0,0,0,0-.1,0-.4,0-.7,0-.9v-2.7c0-.1-.1-.2-.2-.2h-1.7c-.1,0-.2.1-.2.2v11.2c0,.1.1.2.2.2h1.3c.1,0,.2,0,.2-.2l.2-.6c.6.6,1.4.9,2.3.9s1.9-.4,2.5-1.2c.6-.8.9-1.8.9-3.2s-.3-2.4-.9-3.2c-.6-.8-1.4-1.2-2.5-1.2ZM83.7,277.6c0,.8-.1,1.5-.4,1.9-.3.4-.6.6-1.2.6s-1-.2-1.3-.5c-.3-.4-.4-1.1-.4-2h0c0-1,.1-1.6.4-2,.3-.3.7-.5,1.3-.5s1.6,0,1.6,2.5Z"/>
      <path class="st25" d="M87.2,277h6.9c.1,0,.2.1.2.2v1.3c0,.1-.1.2-.2.2h-6.9c-.1,0-.2-.1-.2-.2v-1.3c0-.1.1-.2.2-.2Z"/>
      <path class="st25" d="M87.2,274.1h6.9c.1,0,.2.1.2.2v1.3c0,.1-.1.2-.2.2h-6.9c-.1,0-.2-.1-.2-.2v-1.3c0-.1.1-.2.2-.2Z"/>
      <path class="st25" d="M101.3,279.6c-.6.4-1.3.5-2,.5s-1-.2-1.3-.6c-.3-.4-.5-1-.5-1.9,0-1.7.6-2.5,1.8-2.5s1,.1,1.7.4c0,0,.1,0,.2,0,0,0,.1,0,.1-.1l.5-1.4c0-.1,0-.2-.1-.3-.7-.3-1.5-.5-2.4-.5-1.3,0-2.3.4-3,1.2-.7.8-1,1.9-1,3.2s.3,2.4,1,3.2c.7.8,1.7,1.1,2.9,1.1s.9,0,1.3-.1c.4,0,.7-.2,1-.4,0,0,.1-.1.1-.2v-1.5c0,0,0-.2-.1-.2,0,0-.2,0-.2,0Z"/>
    </g>
  </g>
  <g>
    <polygon class="st12" points="875 633.3 819.4 633.3 819.4 618 847.4 610.4 875 618 875 633.3"/>
    <rect class="st15" x="824.9" y="563.2" width="45.5" height="70.1"/>
    <g>
      <path class="st13" d="M841.5,574.2h-1.1v-4.3h-1.4v-.9h4v.9h-1.4v4.3Z"/>
      <path class="st13" d="M846.8,574.2h-3v-5.2h3v.9h-1.9v1.2h1.8v.9h-1.8v1.3h1.9v.9Z"/>
      <path class="st13" d="M850.9,572.8c0,.5-.2.8-.5,1.1-.3.3-.8.4-1.4.4s-1.1-.1-1.5-.3v-1c.4.2.7.3.9.3.2,0,.5,0,.7,0s.4,0,.6-.1c.1,0,.2-.2.2-.4s0-.2,0-.3c0,0-.1-.2-.3-.2-.1,0-.3-.2-.7-.4-.3-.2-.6-.3-.7-.4-.2-.1-.3-.3-.4-.5,0-.2-.1-.4-.1-.6,0-.5.2-.8.5-1.1.3-.3.7-.4,1.3-.4s.5,0,.8,0,.5.2.8.3l-.4.9c-.3-.1-.5-.2-.7-.2-.2,0-.4,0-.5,0s-.4,0-.5.1c-.1,0-.2.2-.2.4s0,.2,0,.3c0,0,.1.1.2.2.1,0,.3.2.7.4.5.2.8.5,1,.7.2.2.3.5.3.9Z"/>
      <path class="st13" d="M853.9,574.2h-1.1v-4.3h-1.4v-.9h4v.9h-1.4v4.3Z"/>
    </g>
    <g>
      <rect class="st13" x="827.8" y="586" width="4" height="4"/>
      <rect class="st13" x="827.8" y="591.1" width="4" height="4"/>
      <rect class="st13" x="827.8" y="596.1" width="4" height="4"/>
    </g>
    <g>
      <rect class="st13" x="827.8" y="609.1" width="4" height="4"/>
      <rect class="st13" x="827.8" y="614.1" width="4" height="4"/>
      <rect class="st13" x="827.8" y="619.2" width="4" height="4"/>
    </g>
    <rect class="st13" x="834" y="577.9" width="31.7" height="4.1"/>
    <rect class="st13" x="834" y="603.1" width="31.7" height="4.1"/>
    <rect class="st13" x="834" y="587.7" width="31.7" height="1.1"/>
    <rect class="st13" x="834" y="592.6" width="31.7" height="1.1"/>
    <rect class="st13" x="834" y="597.6" width="31.7" height="1.1"/>
    <rect class="st13" x="834" y="620.1" width="31.7" height="1.1"/>
    <rect class="st13" x="834" y="611" width="31.7" height="1.1"/>
    <rect class="st13" x="834" y="615.6" width="31.7" height="1.1"/>
    <polygon class="st12" points="875 641.9 819.4 641.9 819.4 620.9 847.2 631.4 875 620.9 875 641.9"/>
    <path class="st15" d="M871.5,632.7c0,.7-.1,1.3-.3,1.8-.2.6-.5,1-.9,1.3-.4.3-.8.5-1.4.5s-.6,0-.9-.2c-.3-.2-.5-.4-.6-.7h-.1c-.5.6-1.1.9-1.9.9s-1.5-.2-1.9-.7c-.5-.5-.7-1.2-.7-2s.3-1.8.9-2.4c.6-.6,1.4-.9,2.4-.9s.8,0,1.3.1c.5,0,.9.2,1.2.3l-.2,3.4c0,.6.2,1,.5,1s.5-.2.7-.7c.2-.4.3-1,.3-1.7s-.2-1.4-.5-2c-.3-.6-.7-1-1.3-1.3-.6-.3-1.2-.5-1.9-.5s-1.8.2-2.4.6c-.7.4-1.2.9-1.6,1.7-.4.7-.6,1.6-.6,2.5s.3,2.3,1,2.9c.7.7,1.7,1,3,1s1,0,1.6-.2c.6-.1,1.2-.3,1.7-.5v1.3c-1,.4-2.1.6-3.3.6-1.8,0-3.1-.5-4.1-1.4-1-.9-1.5-2.2-1.5-3.9s.3-2.2.8-3.1c.5-.9,1.2-1.7,2.2-2.2.9-.5,2-.8,3.2-.8s1.9.2,2.7.6c.8.4,1.4,1,1.9,1.8.4.8.7,1.7.7,2.7ZM864.3,633.6c0,1,.4,1.5,1.2,1.5s.7-.2,1-.4c.2-.3.4-.8.4-1.4v-1.5c-.1,0-.4,0-.7,0-.6,0-1,.2-1.4.5-.3.4-.5.9-.5,1.5Z"/>
  </g>
  <g>
    <g>
      <g>
        <g>
          <polygon class="st15" points="165 108.3 121.7 108.3 62.5 108.3 62.5 35.7 121.7 35.7 180.8 35.7 180.8 89.9 180.8 108.3 165 108.3"/>
          <path class="st13" d="M180.8,110.5H62.5c-1.2,0-2.2-1-2.2-2.2V35.7c0-1.2,1-2.2,2.2-2.2h118.3c1.2,0,2.2,1,2.2,2.2v72.6c0,1.2-1,2.2-2.2,2.2ZM64.7,106.1h113.8V38h-113.8v68.1Z"/>
        </g>
        <g>
          <path class="st12" d="M110.7,47.1h-39.8c-.6,0-1.1-.5-1.1-1.1s.5-1.1,1.1-1.1h39.8c.6,0,1.1.5,1.1,1.1s-.5,1.1-1.1,1.1Z"/>
          <path class="st12" d="M110.7,54.8h-39.8c-.6,0-1.1-.5-1.1-1.1s.5-1.1,1.1-1.1h39.8c.6,0,1.1.5,1.1,1.1s-.5,1.1-1.1,1.1Z"/>
          <path class="st12" d="M110.7,77.8h-39.8c-.6,0-1.1-.5-1.1-1.1s.5-1.1,1.1-1.1h39.8c.6,0,1.1.5,1.1,1.1s-.5,1.1-1.1,1.1Z"/>
          <path class="st12" d="M110.7,85.4h-39.8c-.6,0-1.1-.5-1.1-1.1s.5-1.1,1.1-1.1h39.8c.6,0,1.1.5,1.1,1.1s-.5,1.1-1.1,1.1Z"/>
          <path class="st12" d="M110.7,62.4h-39.8c-.6,0-1.1-.5-1.1-1.1s.5-1.1,1.1-1.1h39.8c.6,0,1.1.5,1.1,1.1s-.5,1.1-1.1,1.1Z"/>
          <path class="st12" d="M110.7,70.1h-39.8c-.6,0-1.1-.5-1.1-1.1s.5-1.1,1.1-1.1h39.8c.6,0,1.1.5,1.1,1.1s-.5,1.1-1.1,1.1Z"/>
          <path class="st12" d="M110.7,93.1h-39.8c-.6,0-1.1-.5-1.1-1.1s.5-1.1,1.1-1.1h39.8c.6,0,1.1.5,1.1,1.1s-.5,1.1-1.1,1.1Z"/>
          <path class="st12" d="M110.7,100.8h-39.8c-.6,0-1.1-.5-1.1-1.1s.5-1.1,1.1-1.1h39.8c.6,0,1.1.5,1.1,1.1s-.5,1.1-1.1,1.1Z"/>
        </g>
        <g>
          <path class="st12" d="M170.4,47.1h-39.8c-.6,0-1.1-.5-1.1-1.1s.5-1.1,1.1-1.1h39.8c.6,0,1.1.5,1.1,1.1s-.5,1.1-1.1,1.1Z"/>
          <path class="st12" d="M170.4,54.8h-39.8c-.6,0-1.1-.5-1.1-1.1s.5-1.1,1.1-1.1h39.8c.6,0,1.1.5,1.1,1.1s-.5,1.1-1.1,1.1Z"/>
          <path class="st12" d="M170.4,77.8h-39.8c-.6,0-1.1-.5-1.1-1.1s.5-1.1,1.1-1.1h39.8c.6,0,1.1.5,1.1,1.1s-.5,1.1-1.1,1.1Z"/>
          <path class="st12" d="M170.4,85.4h-39.8c-.6,0-1.1-.5-1.1-1.1s.5-1.1,1.1-1.1h39.8c.6,0,1.1.5,1.1,1.1s-.5,1.1-1.1,1.1Z"/>
          <path class="st12" d="M170.4,62.4h-39.8c-.6,0-1.1-.5-1.1-1.1s.5-1.1,1.1-1.1h39.8c.6,0,1.1.5,1.1,1.1s-.5,1.1-1.1,1.1Z"/>
          <path class="st12" d="M170.4,70.1h-39.8c-.6,0-1.1-.5-1.1-1.1s.5-1.1,1.1-1.1h39.8c.6,0,1.1.5,1.1,1.1s-.5,1.1-1.1,1.1Z"/>
          <path class="st12" d="M170.4,93.1h-39.8c-.6,0-1.1-.5-1.1-1.1s.5-1.1,1.1-1.1h39.8c.6,0,1.1.5,1.1,1.1s-.5,1.1-1.1,1.1Z"/>
          <path class="st12" d="M170.4,100.8h-39.8c-.6,0-1.1-.5-1.1-1.1s.5-1.1,1.1-1.1h39.8c.6,0,1.1.5,1.1,1.1s-.5,1.1-1.1,1.1Z"/>
        </g>
        <polygon class="st13" points="119.5 33.7 122 105.4 124.5 33.7 119.5 33.7"/>
      </g>
      <polygon class="st13" points="157.2 89.8 153.8 86.1 150.5 89.8 150.5 33.7 157.2 33.7 157.2 89.8"/>
    </g>
    <g>
      <path class="st13" d="M107.3,140.9c0,1.7-1.4,3.1-3.2,3.1h-57.8c-1.7,0-3.2-1.4-3.2-3.1V48.1c0-1.7,1.4-3.1,3.2-3.1h57.8c1.7,0,3.2,1.4,3.2,3.1v92.8Z"/>
      <rect class="st15" x="50.5" y="52.6" width="49.4" height="81.1"/>
      <polygon class="st21" points="99.9 133.7 50.5 133.7 99.9 52.6 99.9 133.7"/>
      <g>
        <path class="st15" d="M77.9,138.8c0,1.5-1.2,2.8-2.8,2.8h0c-1.5,0-2.8-1.2-2.8-2.8h0c0-1.5,1.2-2.8,2.8-2.8h0c1.5,0,2.8,1.3,2.8,2.8h0Z"/>
        <path class="st15" d="M90.9,138.6c0,.6-.5,1.1-1.1,1.1h-6.5c-.6,0-1.1-.5-1.1-1.1h0c0-.6.5-1.1,1.1-1.1h6.5c.6,0,1.1.5,1.1,1.1h0Z"/>
        <path class="st15" d="M68.2,138.6c0,.6-.5,1.1-1.1,1.1h-6.5c-.6,0-1.1-.5-1.1-1.1h0c0-.6.5-1.1,1.1-1.1h6.5c.6,0,1.1.5,1.1,1.1h0Z"/>
      </g>
    </g>
    <g>
      <path class="st18" d="M80.6,104.2c-.3.9-1.4,1.4-2.3,1h0c-.9-.3-1.4-1.4-1-2.3l1.1-2.9c.3-.9,1.4-1.4,2.3-1h0c.9.3,1.4,1.4,1,2.3l-1.1,2.9Z"/>
      <path class="st12" d="M82.7,101c-.4,1.2-1.7,1.7-2.9,1.3l-.9-.3c-1.1-.4-1.7-1.7-1.3-2.9l21.6-57c.4-1.1,1.7-1.7,2.9-1.3l.9.3c1.1.4,1.7,1.7,1.3,2.9l-21.6,57Z"/>
      <path class="st23" d="M82.3,96.9c-.2.4-.6.6-1,.5h0c-.4-.2-.6-.6-.5-1l1.6-4.2c.2-.4.6-.6,1-.5h0c.4.2.6.6.5,1l-1.6,4.2Z"/>
    </g>
  </g>
</svg>