<?xml version="1.0" encoding="UTF-8"?>
<svg xmlns="http://www.w3.org/2000/svg" xmlns:xlink="http://www.w3.org/1999/xlink" viewBox="0 0 384.45 353.09">
  <defs>
    <style>
      .cls-1 {
        fill: #ff9e00;
      }

      .cls-2 {
        fill: #66e0e1;
      }

      .cls-3 {
        fill: #a3eaee;
      }

      .cls-4 {
        fill: #ff7a00;
      }

      .cls-5 {
        fill: #1771b8;
      }

      .cls-6 {
        fill: #fff;
      }

      .cls-7 {
        fill: #284962;
      }

      .cls-8 {
        fill: #285a73;
      }

      .cls-9 {
        fill: #58d4c9;
      }

      .cls-10 {
        fill: #ff8901;
      }

      .cls-11 {
        fill: #003f7d;
      }

      .cls-12 {
        isolation: isolate;
      }

      .cls-13 {
        mix-blend-mode: multiply;
      }

      .cls-14 {
        fill: #fe4236;
      }

      .cls-15 {
        fill: #d5ecfc;
      }
    </style>
  </defs>
  <g class="cls-12">
    <g id="Layer_2" data-name="Layer 2">
      <g id="icons">
        <g>
          <g class="cls-13">
            <path class="cls-9" d="M307.5,160.15v39.38c0,1.06.86,1.92,1.92,1.92h65.64c1.06,0,1.92-.86,1.92-1.92v-39.38c0-1.06-.86-1.91-1.92-1.91h-65.64c-1.06,0-1.92.86-1.92,1.91Z"/>
            <path class="cls-9" d="M382.25,202.91h-80.02c-2.46,0-2.45.71-1.91,1.32l2.21,2.64c1.63,1.52,3.06,1.32,4.12,1.32h71.19c1.06,0,3.12,0,4.13-1.32l2.21-2.64c.53-.59.53-1.32-1.92-1.32Z"/>
            <path class="cls-9" d="M62.62,125.34h39.76c1.2,0,2.17-.97,2.17-2.16v-20.86h50.52c.84,0,1.53-.68,1.53-1.53v-49.88c0-.84-.68-1.53-1.53-1.53h-81.31c-.84,0-1.53.68-1.53,1.53v6.34h-9.62c-1.2,0-2.17.97-2.17,2.16v63.76c0,1.19.97,2.16,2.17,2.16Z"/>
            <path class="cls-9" d="M247.48,296.34h-33.14c-1,0-1.81.81-1.81,1.8v18.19h-46.48c-.99,0-1.8.81-1.8,1.81v33.14c0,1,.81,1.8,1.8,1.8h81.43c1,0,1.8-.8,1.8-1.8v-53.15c0-1-.81-1.8-1.8-1.8Z"/>
            <path class="cls-9" d="M284.13,91.19h25.82l.08,7v.04c0,.1,0,.21,0,.3v.05h.01c0,.1.02.2.02.31.01.23.04.48.07.75.04.41.1.84.17,1.3.62,4.11,2.15,10.09,3.62,13.6.17.42.36.82.53,1.17.26.5.51.91.74,1.2.1.12.19.21.29.29l-1.25.02c-1.27.01-2.29,1.06-2.27,2.33l.08,6.27c.01,1.27,1.06,2.29,2.33,2.27l24.31-.29c1.27-.02,2.29-1.06,2.27-2.33l-.07-6.27c-.02-1.27-1.06-2.29-2.33-2.27l-1.38.02c.1-.08.21-.17.31-.3.25-.29.51-.72.76-1.22.19-.37.38-.77.55-1.22,1.01-2.48,1.96-6.08,2.48-9.13.08-.47.15-.92.2-1.36.11-.82.18-1.57.19-2.21,0-.13,0-.29,0-.42l-.07-5.84s-.01-.11-.01-.16l-.05-3.9h9.55c1.26,0,2.27-1.02,2.27-2.27v-41.76c0-1.26-1.02-2.27-2.27-2.27h-66.96c-1.25,0-2.27,1.02-2.27,2.27v41.76c0,1.26,1.01,2.27,2.27,2.27Z"/>
            <path class="cls-9" d="M47.42,210.61c3.28,0,6.44-.51,9.41-1.45h21.99c.6,0,1.09-.49,1.09-1.1v-20.09c0-.61-.49-1.1-1.09-1.1h-.99c.61-2.44.94-5,.94-7.62,0-7.27-2.5-13.97-6.66-19.29v-15.27c0-.38-.31-.68-.68-.68h-12.55c-.38,0-.68.31-.68.68v5.11c-3.36-1.23-6.99-1.91-10.77-1.91-1.68,0-3.33.14-4.94.39-.74-.67-1.69-1.04-2.85-1.04-1.36,0-2.43.42-3.19,1.25-.43.47-.73,1.06-.91,1.74-4.81,1.98-9.03,5.12-12.29,9.07H6c-.55,0-1,.45-1,1v20.61c0,.55.45,1.01,1,1.01h10.19c.05.55.11,1.09.18,1.63h-3.52c-.45,0-.82.37-.82.82v.61c0,.45.37.82.82.82h3.92c.6,2.82,1.59,5.5,2.9,7.98h-1.51c-.53,0-.96.43-.96.96s.43.96.96.96h2.6c.95,1.53,2.03,2.97,3.22,4.32l.95,5.89c.07.41.39.73.81.79.05,0,.1,0,.14,0,.36,0,.7-.21.86-.54l1.19-2.41c5.36,4.26,12.13,6.82,19.49,6.82ZM29.29,201.01l3.35-6.81c.54-.33,1.09-.66,1.65-.95,1.89,5.2,4.85,9.98,8.77,14.01-5.19-.81-9.91-3.03-13.77-6.25ZM26.91,198.81c.76-.8,1.58-1.53,2.42-2.23l-1.52,3.1c-.3-.29-.61-.57-.9-.87ZM39.28,191.22h2.27c.45,0,.81-.31.91-.73,1-.18,2.02-.3,3.04-.37v15.34c-3.82-3.84-6.71-8.43-8.5-13.45.75-.29,1.51-.55,2.28-.79ZM45.95,187.11c-3.41.16-6.72.85-9.83,2.05-.62-2.34-1-4.76-1.14-7.22h5.37c.55,0,1-.45,1-1.01v-.19h4.86v6.21c-.1.04-.18.09-.27.16ZM41.36,172.03c1.59.31,3.21.51,4.86.57v5.16h-4.86v-5.73ZM45.04,154.56l.03.04c.09.11.26.13.37.04.24-.19.45-.32.63-.39.05-.02.1-.03.15-.04v2.05c-.07.07-.12.13-.21.22l-1.45,1.46c-.05.05-.08.12-.08.19v.68c0,.15.12.27.27.27h1.46v10.56c-1.65-.07-3.27-.28-4.86-.63v-8.68c0-.3-.14-.56-.35-.75,1.18-1.78,2.53-3.46,4.03-5.02ZM41.47,151.52c0,.13.02.25.02.4,0,1.8-.62,2.68-1.88,2.68-1.11,0-1.72-.66-1.87-2,1.21-.44,2.45-.8,3.73-1.08ZM26.61,181.94h5.4c.03.55.06,1.09.11,1.63h-5.51v-1.63ZM62.62,186.88c.42-2.01.71-4.06.82-6.14h.85v.92c0,.13.11.24.24.24h1.3c.13,0,.24-.11.24-.24v-.92h4.29v2.56c0,.13.11.24.24.24h1.27c.11,0,.2-.07.23-.17l.21-.63c.58.62,1.37.94,2.33.94.27,0,.52-.03.76-.08-.17,1.11-.4,2.21-.7,3.27h-12.08ZM75.64,180.74c-.06.18-.13.34-.22.47-.27.41-.64.61-1.16.61-.62,0-1.05-.18-1.31-.55-.1-.14-.17-.32-.24-.53h2.92ZM72.73,177.77c.06-.17.13-.33.21-.44.26-.34.67-.51,1.28-.51.29,0,1.01,0,1.38.95h-2.87ZM74.67,174.95c-.89,0-1.61.27-2.17.81,0-.04,0-.07,0-.11.02-.39.03-.69.03-.89v-2.66c0-.13-.11-.24-.24-.24h-1.69c-.13,0-.24.11-.24.24v5.66h-1.42v-.3c0-.13-.11-.24-.24-.24h-2.63v-2.7c0-.13-.11-.24-.24-.24h-1.3c-.13,0-.24.11-.24.24v2.7h-.85c-.11-2.83-.5-5.61-1.19-8.3,1.79-.96,3.47-2.12,5.05-3.42h4.12c.24,0,.45-.13.57-.33,1.72,2.99,2.9,6.31,3.43,9.86-.24-.05-.49-.07-.76-.07ZM62.18,165.5c-.26.16-.52.33-.78.49-.06-.16-.12-.32-.18-.49h.96ZM58.19,153.06v5.92c-1.59-2.74-3.5-5.31-5.74-7.63,2,.36,3.91.95,5.74,1.71ZM49.2,152.32c4.4,4.19,7.64,9.34,9.5,15.01-2.98,1.29-6.19,2.07-9.5,2.28v-17.28ZM49.2,172.59c3.59-.2,7.07-1.01,10.32-2.37.59,2.45.92,4.98.98,7.55h-.44c-.03-.92-.31-1.63-.84-2.09-.56-.48-1.38-.72-2.45-.72-.47,0-.98.06-1.51.18-.53.12-1.03.3-1.48.54-.11.06-.16.2-.11.31l.55,1.21c.03.05.07.1.14.12.06.02.13.02.18,0,.33-.15.69-.3,1.05-.41.35-.11.72-.17,1.1-.17.43,0,.74.1.93.3.15.16.23.42.26.73h-8.69v-5.18ZM55.14,180.74h2.69c-.07.29-.2.53-.41.71-.33.3-.76.45-1.32.45-.36,0-.62-.08-.79-.23-.16-.15-.24-.36-.24-.65,0-.11.04-.19.06-.29ZM52.87,180.74c0,.09-.03.18-.03.28,0,.84.25,1.5.73,1.96.48.46,1.15.7,2,.7.64,0,1.18-.1,1.6-.29.34-.15.67-.41,1-.77l.23.74c.03.1.12.17.23.17h1.21c.13,0,.24-.11.24-.24v-2.56h.39c-.11,2.09-.42,4.13-.88,6.14h-10.4v-6.14h3.68ZM43.86,151.52c0-.13-.01-.27-.03-.4.16-.02.33-.05.49-.07-.16.15-.31.31-.46.46ZM35.52,153.52c.08.3.18.59.31.86.35.72.86,1.28,1.51,1.66.62.36,1.33.55,2.12.57-.64.88-1.24,1.79-1.81,2.73h-10.36c2.37-2.39,5.15-4.37,8.23-5.81ZM19.23,181.94h.53v1.63h-.33c-.08-.54-.15-1.09-.2-1.63ZM19.87,185.83h12.53c.18,1.2.43,2.39.73,3.57-.2.09-.38.24-.48.45l-.64,1.3c-2.43,1.38-4.69,3.07-6.7,5.08l-.26-1.6c-.07-.46-.48-.8-.95-.8h-.97c-1.47-2.45-2.58-5.13-3.26-7.98ZM26.35,202.65l-.04-.23s.07.06.11.1l-.07.14Z"/>
            <path class="cls-9" d="M19.75,200.41c-.34,0-.62.03-.85.08l-.2.04.15-1.61h2.94v-1.47h-4.46l-.31,4.19.69.37c.15-.04.35-.09.58-.12.24-.04.46-.06.66-.06,1.1,0,1.65.42,1.65,1.24,0,.87-.53,1.31-1.59,1.31-.35,0-.73-.05-1.12-.15-.39-.1-.74-.23-1.04-.39v1.5c.56.3,1.3.45,2.22.45,1.05,0,1.87-.25,2.43-.74.57-.49.85-1.2.85-2.12,0-.78-.24-1.39-.71-1.83-.47-.45-1.1-.67-1.9-.67Z"/>
            <path class="cls-9" d="M79.31,178.67h6.93c.13,0,.24.11.24.24v1.28c0,.13-.11.24-.24.24h-6.93c-.13,0-.24-.11-.24-.24v-1.28c0-.13.11-.24.24-.24Z"/>
            <path class="cls-9" d="M79.31,175.79h6.93c.13,0,.24.11.24.24v1.29c0,.13-.11.24-.24.24h-6.93c-.13,0-.24-.11-.24-.24v-1.29c0-.13.11-.24.24-.24Z"/>
            <path class="cls-9" d="M91.52,176.85c.43,0,1,.13,1.68.4.06.02.13.02.19,0,.06-.03.1-.08.13-.13l.51-1.36c.04-.12-.01-.25-.12-.3-.7-.33-1.5-.49-2.37-.49-1.3,0-2.32.39-3.01,1.16-.69.76-1.05,1.85-1.05,3.25s.34,2.44,1,3.18c.67.76,1.65,1.14,2.92,1.14.5,0,.94-.04,1.3-.12.37-.08.71-.22,1.04-.41.07-.04.12-.12.12-.21v-1.47c0-.08-.05-.16-.12-.21-.07-.04-.16-.04-.24,0-.63.35-1.31.53-2.02.53-.59,0-1.02-.19-1.32-.58-.31-.4-.47-1.03-.47-1.86,0-1.69.6-2.5,1.83-2.5Z"/>
            <path class="cls-9" d="M172.46,40.63c.73,1.2,2.29,1.59,3.49.87l2.09-1.26c1.2-.72,1.59-2.29.87-3.49l-6.18-10.27c-.13-.21-.28-.38-.45-.54-2.56-5.97-.39-13.07,5.32-16.51,5.65-3.39,12.83-2.05,16.92,2.86.05.31.16.61.33.89l6.17,10.27c.56.92,1.6,1.36,2.6,1.19v1.8h-19.31c-1,0-1.8.81-1.8,1.8v33.13c0,1,.81,1.8,1.8,1.8h19.31v1.39c0,2.03,1.65,3.68,3.68,3.68h36.83c2.03,0,3.68-1.65,3.68-3.68v-21.55c0-2.02-1.65-3.67-3.68-3.67h-4.89v-11.11c0-1-.8-1.8-1.8-1.8h-13.9l3.99-10.55c.25-.66-.08-1.39-.74-1.64l-.49-.19c-.66-.25-1.39.08-1.64.74l-4.41,11.63h-14.67v-2.77l1.02-.61c1.21-.72,1.59-2.29.87-3.49l-6.18-10.27c-.72-1.2-2.29-1.59-3.49-.87l-2.09,1.26s-.04.04-.07.05c-4.98-5.09-12.99-6.32-19.36-2.49-6.37,3.83-9.04,11.48-6.87,18.28-.06.03-.12.05-.17.08l-2.09,1.26c-1.21.72-1.59,2.29-.87,3.49l6.18,10.27ZM244.14,41.31c.95,0,1.71.77,1.71,1.71v21.55c0,.95-.77,1.71-1.71,1.71h-36.83c-.95,0-1.71-.77-1.71-1.71v-1.39h31.85c.99,0,1.8-.81,1.8-1.8v-20.06h4.89Z"/>
            <path class="cls-9" d="M263.84,234.27H106.11c-4.86,0-4.83,1.39-3.78,2.6l4.35,5.2c3.22,3,6.04,2.6,8.13,2.6h140.33c2.08,0,6.15.02,8.13-2.6l4.35-5.2c1.04-1.17,1.04-2.6-3.78-2.6Z"/>
            <path class="cls-9" d="M276.89,203.77l-.08-7.65c-.03-3.06-2.6-11.06-5.66-11.03h-.7s0-29.85,0-29.85c0-.52-.21-1.01-.58-1.37l-.6-.58,2.17-5.71h15.41c1.58-.01,3-.99,3.56-2.46.57-1.47.17-3.15-1-4.21l-44.19-40.06c-.65-.58-1.47-.93-2.35-.98l-58.1-3.44c-.08,0-.15,0-.23,0-1.48,0-2.83.85-3.46,2.21-.66,1.42-.39,3.1.68,4.24l11.22,11.89-11.45,30.15c-.15.39-.22.83-.24,1.3h-61.03c-2.08,0-3.78,1.69-3.78,3.78v77.63c0,2.09,1.7,3.78,3.78,3.78h129.4c2.09,0,3.78-1.69,3.78-3.78v-47.95c4.08-1.04,6.81-2.66,7.54-4.58l5.62-14.81v24.87h-1.02c-3.06.05-5.46,8.09-5.43,11.15l.08,7.66c.03,3.06,2.54,5.52,5.6,5.48l5.54-.06c3.06-.04,5.51-2.54,5.48-5.6Z"/>
            <path class="cls-9" d="M139.24,322.68H38.94c-3.09,0-3.07.89-2.4,1.66l2.77,3.3c2.05,1.91,3.84,1.66,5.17,1.66h89.23c1.32,0,3.91,0,5.17-1.66l2.77-3.3c.66-.74.66-1.66-2.41-1.66Z"/>
            <path class="cls-9" d="M70.77,252.71v13.97h-22.83c-1.32,0-2.4,1.08-2.4,2.4v49.36c0,1.33,1.08,2.4,2.4,2.4h82.28c1.33,0,2.4-1.08,2.4-2.4v-49.36c0-1.32-1.08-2.4-2.4-2.4h-22.83v-13.97h-36.63Z"/>
            <path class="cls-9" d="M369.07,304.73h-5.67v-30.22c0-.42-.15-.81-.38-1.12v-17.8c0-1.21-.99-2.2-2.21-2.2h-75.43c-1.21,0-2.2.99-2.2,2.2v45.25c0,1.22.99,2.2,2.2,2.2h19.32v1.68h-27.58c-2.83,0-2.81.81-2.2,1.52l2.54,3.03c1.87,1.75,3.52,1.52,4.74,1.52h64.87l6.38,9.76c.57.88,1.75,1.13,2.63.55l2.72-1.78c.88-.58,1.13-1.75.55-2.63l-3.86-5.91h8.51c1.21,0,3.59,0,4.74-1.52l2.54-3.03c.61-.68.61-1.52-2.2-1.52Z"/>
          </g>
          <g>
            <path class="cls-5" d="M371.98,194.53c0,1.06-.86,1.92-1.92,1.92h-65.64c-1.06,0-1.92-.86-1.92-1.92v-39.38c0-1.06.86-1.91,1.92-1.91h65.64c1.06,0,1.92.86,1.92,1.91v39.38Z"/>
            <rect class="cls-6" x="306.97" y="156.29" width="60.53" height="37.11"/>
            <path class="cls-5" d="M376.96,201.87c-1.01,1.33-3.07,1.32-4.13,1.32h-71.19c-1.06,0-2.49.2-4.12-1.32l-2.21-2.64c-.53-.61-.55-1.32,1.91-1.32h80.02c2.45,0,2.45.73,1.92,1.32l-2.21,2.64Z"/>
            <path class="cls-3" d="M312.34,158.6h48.98c1.22,0,2.21.99,2.21,2.21v27.87c0,1.22-.99,2.21-2.21,2.21h-48.98c-1.22,0-2.21-.99-2.21-2.21v-27.87c0-1.22.99-2.21,2.21-2.21Z"/>
            <path class="cls-2" d="M312.34,158.6h48.98c1.22,0,2.21.99,2.21,2.21v1.84c0,1.22-.99,2.21-2.21,2.21h-48.98c-1.22,0-2.21-.99-2.21-2.21v-1.84c0-1.22.99-2.21,2.21-2.21Z"/>
            <path class="cls-4" d="M315.65,161.6c0,.78-.63,1.41-1.41,1.41h-1.85c-.78,0-1.41-.63-1.41-1.41h0c0-.78.63-1.42,1.41-1.42h1.85c.78,0,1.41.63,1.41,1.42h0Z"/>
            <path class="cls-15" d="M320.91,161.6c0,.78-.63,1.41-1.41,1.41h-1.85c-.78,0-1.42-.63-1.42-1.41h0c0-.78.63-1.42,1.42-1.42h1.85c.78,0,1.41.63,1.41,1.42h0Z"/>
            <path class="cls-4" d="M326.33,161.6c0,.78-.63,1.41-1.41,1.41h-1.85c-.78,0-1.41-.63-1.41-1.41h0c0-.78.63-1.42,1.41-1.42h1.85c.78,0,1.41.63,1.41,1.42h0Z"/>
            <rect class="cls-6" x="313.32" y="167.43" width="45.25" height="21.71"/>
            <rect class="cls-5" x="316.99" y="171.3" width="9.34" height="2.21"/>
            <rect class="cls-5" x="316.99" y="177.18" width="15.51" height="2.21"/>
            <rect class="cls-5" x="316.99" y="182.7" width="9.36" height="2.21"/>
            <rect class="cls-5" x="329.66" y="182.7" width="12.9" height="2.21"/>
            <rect class="cls-5" x="335.94" y="177.18" width="9.56" height="2.21"/>
            <rect class="cls-5" x="347.9" y="177.18" width="7.36" height="2.21"/>
            <g>
              <rect class="cls-5" x="342.56" y="180.31" width="4.09" height="1.1"/>
              <rect class="cls-5" x="342.56" y="186.2" width="4.09" height="1.11"/>
              <rect class="cls-5" x="344.05" y="180.86" width="1.11" height="5.89"/>
            </g>
          </g>
          <g>
            <g>
              <g>
                <g>
                  <polygon class="cls-6" points="139.23 95.8 109.42 95.8 68.77 95.8 68.77 45.92 109.42 45.92 150.08 45.92 150.08 83.15 150.08 95.8 139.23 95.8"/>
                  <path class="cls-4" d="M150.08,97.32h-81.31c-.84,0-1.53-.68-1.53-1.53v-49.88c0-.84.68-1.53,1.53-1.53h81.31c.84,0,1.53.68,1.53,1.53v49.88c0,.84-.68,1.53-1.53,1.53ZM70.3,94.27h78.25v-46.82h-78.25v46.82Z"/>
                </g>
                <g>
                  <path class="cls-5" d="M101.87,53.73h-27.35c-.42,0-.76-.34-.76-.76s.34-.76.76-.76h27.35c.42,0,.76.34.76.76s-.34.76-.76.76Z"/>
                  <path class="cls-5" d="M101.87,59h-27.35c-.42,0-.76-.34-.76-.76s.34-.76.76-.76h27.35c.42,0,.76.34.76.76s-.34.76-.76.76Z"/>
                  <path class="cls-5" d="M101.87,74.8h-27.35c-.42,0-.76-.34-.76-.76s.34-.76.76-.76h27.35c.42,0,.76.34.76.76s-.34.76-.76.76Z"/>
                  <path class="cls-5" d="M101.87,80.06h-27.35c-.42,0-.76-.34-.76-.76s.34-.76.76-.76h27.35c.42,0,.76.34.76.76s-.34.76-.76.76Z"/>
                  <path class="cls-5" d="M101.87,64.26h-27.35c-.42,0-.76-.34-.76-.76s.34-.77.76-.77h27.35c.42,0,.76.34.76.77s-.34.76-.76.76Z"/>
                  <path class="cls-5" d="M101.87,69.53h-27.35c-.42,0-.76-.34-.76-.76s.34-.76.76-.76h27.35c.42,0,.76.34.76.76s-.34.76-.76.76Z"/>
                  <path class="cls-5" d="M101.87,85.33h-27.35c-.42,0-.76-.34-.76-.76s.34-.76.76-.76h27.35c.42,0,.76.34.76.76s-.34.76-.76.76Z"/>
                  <path class="cls-5" d="M101.87,90.6h-27.35c-.42,0-.76-.34-.76-.76s.34-.77.76-.77h27.35c.42,0,.76.34.76.77s-.34.76-.76.76Z"/>
                </g>
                <g>
                  <path class="cls-5" d="M142.89,53.73h-27.35c-.42,0-.77-.34-.77-.76s.34-.76.77-.76h27.35c.42,0,.76.34.76.76s-.34.76-.76.76Z"/>
                  <path class="cls-5" d="M142.89,59h-27.35c-.42,0-.77-.34-.77-.76s.34-.76.77-.76h27.35c.42,0,.76.34.76.76s-.34.76-.76.76Z"/>
                  <path class="cls-5" d="M142.89,74.8h-27.35c-.42,0-.77-.34-.77-.76s.34-.76.77-.76h27.35c.42,0,.76.34.76.76s-.34.76-.76.76Z"/>
                  <path class="cls-5" d="M142.89,80.06h-27.35c-.42,0-.77-.34-.77-.76s.34-.76.77-.76h27.35c.42,0,.76.34.76.76s-.34.76-.76.76Z"/>
                  <path class="cls-5" d="M142.89,64.26h-27.35c-.42,0-.77-.34-.77-.76s.34-.77.77-.77h27.35c.42,0,.76.34.76.77s-.34.76-.76.76Z"/>
                  <path class="cls-5" d="M142.89,69.53h-27.35c-.42,0-.77-.34-.77-.76s.34-.76.77-.76h27.35c.42,0,.76.34.76.76s-.34.76-.76.76Z"/>
                  <path class="cls-5" d="M142.89,85.33h-27.35c-.42,0-.77-.34-.77-.76s.34-.76.77-.76h27.35c.42,0,.76.34.76.76s-.34.76-.76.76Z"/>
                  <path class="cls-5" d="M142.89,90.6h-27.35c-.42,0-.77-.34-.77-.76s.34-.77.77-.77h27.35c.42,0,.76.34.76.77s-.34.76-.76.76Z"/>
                </g>
                <polygon class="cls-10" points="107.92 44.51 109.65 93.77 111.39 44.51 107.92 44.51"/>
              </g>
              <polygon class="cls-4" points="133.85 83.05 131.54 80.53 129.22 83.05 129.22 44.51 133.85 44.51 133.85 83.05"/>
            </g>
            <g>
              <path class="cls-5" d="M57.62,52.26h39.77c1.19,0,2.16.97,2.16,2.16v63.76c0,1.19-.97,2.16-2.16,2.16h-39.77c-1.2,0-2.17-.97-2.17-2.17v-63.76c0-1.19.97-2.16,2.16-2.16Z"/>
              <rect class="cls-6" x="60.54" y="57.5" width="33.93" height="55.77"/>
              <polygon class="cls-3" points="94.47 113.27 60.54 113.27 94.47 57.5 94.47 113.27"/>
              <g>
                <path class="cls-6" d="M79.32,116.76c0,1.06-.86,1.91-1.91,1.91h0c-1.06,0-1.91-.85-1.91-1.91h0c0-1.05.85-1.91,1.91-1.91h0c1.05,0,1.91.86,1.91,1.91h0Z"/>
                <path class="cls-6" d="M88.29,116.63c0,.42-.34.76-.76.76h-4.46c-.42,0-.76-.34-.76-.76h0c0-.42.34-.76.76-.76h4.46c.42,0,.76.34.76.76h0Z"/>
                <path class="cls-6" d="M72.7,116.63c0,.42-.34.76-.76.76h-4.45c-.43,0-.77-.34-.77-.76h0c0-.42.34-.76.77-.76h4.45c.42,0,.76.34.76.76h0Z"/>
              </g>
            </g>
            <g>
              <path class="cls-7" d="M81.17,92.97c-.24.63-.95.95-1.58.71h0c-.63-.24-.95-.95-.71-1.58l.75-1.99c.24-.63.95-.95,1.58-.71h0c.63.24.95.95.71,1.58l-.75,1.99Z"/>
              <path class="cls-4" d="M82.66,90.77c-.3.79-1.18,1.19-1.97.89l-.59-.22c-.79-.3-1.19-1.18-.89-1.97l14.83-39.18c.3-.79,1.18-1.19,1.97-.89l.58.22c.79.3,1.19,1.18.89,1.97l-14.83,39.18Z"/>
              <path class="cls-10" d="M82.35,87.92c-.1.28-.42.42-.7.31h0c-.28-.11-.42-.42-.31-.7l1.08-2.86c.11-.28.42-.42.7-.31h0c.28.1.42.41.32.7l-1.09,2.86Z"/>
            </g>
          </g>
          <g>
            <g>
              <path class="cls-5" d="M244.29,346.29c0,1-.81,1.8-1.8,1.8h-33.14c-1,0-1.81-.8-1.81-1.8v-53.15c0-1,.81-1.8,1.81-1.8h33.14c1,0,1.8.81,1.8,1.8v53.15Z"/>
              <rect class="cls-6" x="211.77" y="295.71" width="28.29" height="46.49"/>
              <g>
                <path class="cls-6" d="M227.42,345.11c0,.88-.71,1.59-1.59,1.59h0c-.88,0-1.59-.71-1.59-1.59h0c0-.88.71-1.59,1.59-1.59h0c.88,0,1.59.71,1.59,1.59h0Z"/>
                <path class="cls-6" d="M234.91,345c0,.35-.29.64-.64.64h-3.71c-.35,0-.64-.28-.64-.64h0c0-.35.29-.64.64-.64h3.71c.35,0,.64.29.64.64h0Z"/>
                <path class="cls-6" d="M221.91,345c0,.35-.28.64-.64.64h-3.71c-.36,0-.63-.28-.63-.64h0c0-.35.28-.64.63-.64h3.71c.35,0,.64.29.64.64h0Z"/>
              </g>
            </g>
            <path class="cls-4" d="M239.22,313.23c0-6.12-5.99-11.07-13.38-11.07s-13.39,4.96-13.39,11.07,5.99,11.07,13.39,11.07c.94,0,1.86-.08,2.74-.24,1.45,3.88,2.51,9.12,2.51,9.12l1.16-10.23c4.15-1.88,6.97-5.53,6.97-9.72Z"/>
            <g>
              <path class="cls-5" d="M161.05,348.09c-.99,0-1.8-.81-1.8-1.8v-33.14c0-1,.81-1.81,1.8-1.81h53.15c1,0,1.8.81,1.8,1.81v33.14c0,1-.81,1.8-1.8,1.8h-53.15Z"/>
              <rect class="cls-6" x="165.14" y="315.57" width="46.49" height="28.29"/>
              <g>
                <path class="cls-6" d="M162.23,331.22c-.88,0-1.59-.71-1.59-1.59h0c0-.88.71-1.59,1.59-1.59h0c.88,0,1.59.71,1.59,1.59h0c0,.88-.71,1.59-1.59,1.59h0Z"/>
                <path class="cls-6" d="M162.34,338.71c-.35,0-.64-.29-.64-.64v-3.71c0-.35.29-.63.64-.63h0c.35,0,.64.29.64.63v3.71c0,.35-.28.64-.64.64h0Z"/>
                <path class="cls-6" d="M162.34,325.71c-.35,0-.64-.28-.64-.64v-3.71c0-.35.29-.64.64-.64h0c.35,0,.64.28.64.64v3.71c0,.35-.28.64-.64.64h0Z"/>
              </g>
            </g>
            <path class="cls-4" d="M191.06,319.62c-7.2,0-13.03,4.11-13.03,9.16,0,1.74.7,3.36,1.9,4.74l-6.45,6.11,10.58-3.13c2.02.91,4.42,1.44,7,1.44,7.2,0,13.03-4.1,13.03-9.16s-5.84-9.16-13.03-9.16Z"/>
            <path class="cls-6" d="M189.52,332.08v-.55c0-.63.12-1.16.35-1.58.23-.42.63-.86,1.21-1.31.69-.54,1.13-.96,1.33-1.26.2-.3.3-.66.3-1.07,0-.48-.16-.86-.48-1.11-.32-.26-.79-.39-1.39-.39-.55,0-1.06.08-1.52.23-.46.16-.92.35-1.36.56l-.73-1.52c1.17-.65,2.42-.97,3.76-.97,1.13,0,2.02.28,2.69.83.66.55.99,1.32.99,2.29,0,.43-.06.82-.19,1.15-.12.34-.32.66-.57.96-.26.3-.7.7-1.33,1.19-.54.42-.89.77-1.08,1.05-.18.28-.27.65-.27,1.12v.39h-1.69ZM189.16,334.83c0-.87.42-1.31,1.27-1.31.42,0,.74.12.95.34.22.23.33.55.33.96s-.11.73-.33.97c-.22.24-.54.36-.95.36s-.72-.12-.94-.35c-.22-.23-.33-.56-.33-.98Z"/>
            <path class="cls-6" d="M224.56,318.39c0-.42.11-.75.34-.97.22-.22.54-.33.95-.33s.72.11.94.34c.22.23.32.55.32.95s-.11.73-.33.97c-.22.24-.53.36-.93.36s-.72-.12-.95-.34c-.23-.23-.34-.56-.34-.98ZM226.6,315.65h-1.49l-.45-8.75h2.38l-.44,8.75Z"/>
          </g>
          <g>
            <g>
              <g>
                <path class="cls-5" d="M279.13,86.19c-1.25,0-2.27-1.02-2.27-2.27v-41.76c0-1.26,1.01-2.27,2.27-2.27h66.96c1.26,0,2.27,1.02,2.27,2.27v41.76c0,1.26-1.02,2.27-2.27,2.27h-66.96Z"/>
                <rect class="cls-6" x="284.29" y="45.22" width="58.57" height="35.64"/>
                <g>
                  <path class="cls-6" d="M280.62,64.94c-1.11,0-2.01-.9-2.01-2.01h0c0-1.11.9-2,2.01-2h0c1.11,0,2,.9,2,2h0c0,1.11-.9,2.01-2,2.01h0Z"/>
                  <path class="cls-6" d="M280.75,74.36c-.44,0-.8-.36-.8-.8v-4.68c0-.44.36-.8.8-.8h0c.44,0,.8.36.8.8v4.68c0,.44-.36.8-.8.8h0Z"/>
                  <path class="cls-6" d="M280.75,57.99c-.44,0-.8-.36-.8-.8v-4.68c0-.44.36-.8.8-.8h0c.44,0,.8.36.8.8v4.68c0,.44-.36.8-.8.8h0Z"/>
                </g>
              </g>
              <rect class="cls-3" x="287.44" y="48.73" width="51.79" height="27.56"/>
              <g>
                <path class="cls-5" d="M303.82,48.73c-2.41,1.88-5.31,5.36-4.37,8.63.07,1.65.76,2.04.44,3.45-.3,1.41-2.65,3.07-2.72,3.96-.07.9,1.54,1.34,1.89,1.62.34.27-.61,1.27-.61,1.54s.89.29.74.49c-.14.21-.51.66-.3,1,.2.35.75.08.61.9-.14.83-.48,3.05,2.19,3.39,2.67.34,3.76.04,4.17,1.75.06.25.08.54.07.85h11.97c-.04-1.92.36-4.11,1.83-5.93,3.59-4.46,9.37-16.55.13-21.64h-16.03Z"/>
                <path class="cls-6" d="M305.17,52.01s-.76,1.58,3.44,3.92c4.2,2.34,8.97,5.01,10.31,6.35,1.34,1.34,5.45-2.42,4.2-7.29-1.25-4.86-13.93-10.01-17.94-2.98Z"/>
              </g>
            </g>
            <path class="cls-14" d="M319.02,59.67l-7.07-4.89c-.2-.14-.43-.21-.66-.21-.18,0-.37.04-.54.13-.38.2-.62.6-.62,1.03v8.94c0,.42.22.8.58,1.01.18.1.38.16.58.16s.4-.05.58-.15l7.07-4.05c.35-.2.57-.56.58-.96.02-.4-.17-.78-.5-1.01Z"/>
            <g>
              <g>
                <path class="cls-4" d="M336.58,90.09c0,.05.01.11.01.16l.07,5.84c0,.13-.01.29,0,.42-.01.64-.08,1.39-.19,2.21-.05.44-.12.88-.2,1.36-.52,3.05-1.46,6.65-2.48,9.13-.18.45-.36.85-.55,1.22-.25.5-.51.93-.76,1.22-.26.32-.53.49-.77.49l-20.87.25c-.19-.04-.41-.2-.63-.48-.23-.29-.48-.69-.74-1.2-.17-.35-.36-.75-.53-1.17-1.47-3.51-3.01-9.49-3.62-13.6-.07-.46-.13-.89-.17-1.3-.03-.27-.06-.52-.07-.75,0-.11-.01-.22-.02-.31h-.01v-.05c0-.1-.01-.2-.02-.3v-.04s-.12-10.54-.12-10.54c-.07-.68.13-1.34.56-1.88.43-.54,1.04-.87,1.72-.95.09,0,.17-.01.25-.01.97-.01,1.82.52,2.27,1.33l.04,3.21c0,.19.06.38.15.53.1.22.27.38.48.5h0c.18.09.38.16.58.16.16,0,.3-.04.42-.09.07-.03.13-.07.21-.11,0-.01.02-.01.03-.03.32-.22.54-.58.53-1l-.29-23.71c-.02-1.43,1.13-2.6,2.56-2.62,1.42-.02,2.59,1.13,2.61,2.56l.29,23.71c0,.42.23.77.55.99.09.05.16.09.24.13.13.04.27.08.42.08.26,0,.47-.09.66-.23.17-.12.31-.27.41-.46.07-.16.13-.34.13-.53l-.1-8.05c-.01-1.28,1.01-2.33,2.28-2.35,1.28-.02,2.34,1.01,2.35,2.29l.1,8.05c0,.42.22.77.55.98.2.13.42.21.67.21.24,0,.46-.09.65-.23.32-.22.55-.58.54-1l-.06-4.65c-.02-1.27,1-2.32,2.28-2.34,1.27-.01,2.32,1.01,2.34,2.28l.06,4.65c0,.47.29.86.67,1.06.17.08.35.14.54.14.03,0,.05-.01.08-.01.54-.03.96-.42,1.07-.93.02-.1.04-.18.04-.28l-.04-3.21c0-.75.59-1.36,1.34-1.37.74,0,1.35.59,1.36,1.34l.05,3.87h-.01s.07,5.41.07,5.41Z"/>
                <path class="cls-4" d="M335.96,120.46c.02,1.27-1,2.31-2.27,2.33l-24.31.29c-1.27.02-2.32-1-2.33-2.27l-.08-6.27c-.02-1.27,1-2.31,2.27-2.33l24.31-.3c1.27-.02,2.31,1,2.33,2.27l.07,6.27Z"/>
              </g>
              <path class="cls-1" d="M316.12,61.23v1.02c.02.92-.72,1.67-1.64,1.68-.92,0-1.67-.73-1.68-1.65v-1.01c-.02-.92.72-1.67,1.64-1.68.92,0,1.67.73,1.68,1.65Z"/>
            </g>
          </g>
          <g>
            <path class="cls-6" d="M42.42,142.9c-17.29,0-31.35,14.06-31.35,31.35s14.06,31.35,31.35,31.35,31.35-14.06,31.35-31.35-14.07-31.35-31.35-31.35ZM56.7,185.5c.98-3.14,1.58-6.41,1.75-9.76h12.27c-.31,5.93-2.44,11.38-5.85,15.8-2.4-2.47-5.16-4.5-8.17-6.04ZM19.97,191.54c-3.41-4.42-5.54-9.87-5.85-15.8h12.83c.08,3.3.56,6.54,1.42,9.64-3.1,1.55-5.93,3.62-8.4,6.15ZM28.33,164.3c-.75,2.74-1.21,5.58-1.36,8.47h-12.85c.29-5.63,2.23-10.83,5.34-15.12,2.57,2.76,5.58,5,8.87,6.66ZM44.2,167.59c3.59-.2,7.07-1.01,10.32-2.37.59,2.45.92,4.98.98,7.55h-11.3v-5.18ZM44.2,164.61v-17.28c4.4,4.19,7.64,9.34,9.5,15-2.98,1.29-6.19,2.07-9.5,2.28ZM41.22,148.37v16.27c-3.22-.13-6.34-.8-9.27-1.96,1.89-5.39,5.05-10.29,9.27-14.3ZM41.22,167.61v5.16h-11.27c.13-2.47.53-4.89,1.14-7.24,3.2,1.24,6.62,1.95,10.13,2.08ZM29.92,175.74h11.3v6.35c-3.5.13-6.9.84-10.1,2.07-.72-2.72-1.13-5.54-1.21-8.42ZM41.22,185.06v16.12c-4.18-3.98-7.32-8.84-9.22-14.17,2.91-1.15,6.02-1.81,9.22-1.95ZM44.2,200.14v-15.05c3.05.19,6.02.87,8.8,1.98-1.92,4.9-4.91,9.36-8.8,13.07ZM44.2,182.1v-6.36h11.27c-.16,2.92-.67,5.77-1.5,8.52-3.09-1.22-6.38-1.96-9.77-2.15ZM58.47,172.77c-.07-3.02-.49-5.98-1.22-8.85,3-1.61,5.75-3.72,8.12-6.28,3.12,4.3,5.05,9.49,5.35,15.12h-12.24ZM63.47,155.3c-2.07,2.29-4.46,4.2-7.08,5.68-1.85-5.44-4.89-10.43-8.94-14.63,6.32,1.14,11.9,4.37,16.02,8.95ZM39.33,146.05c-4.58,4.31-8,9.58-10.08,15.37-2.94-1.54-5.61-3.6-7.88-6.12,4.55-5.05,10.86-8.47,17.97-9.25ZM21.91,193.81c2.17-2.27,4.66-4.14,7.38-5.56,1.89,5.2,4.85,9.98,8.77,14.01-6.31-.98-11.94-4.03-16.16-8.45ZM46.19,202.35c4.19-3.97,7.42-8.76,9.51-14.02,2.66,1.41,5.1,3.25,7.22,5.48-4.35,4.56-10.19,7.66-16.74,8.54Z"/>
            <g>
              <path class="cls-5" d="M35.36,154.32H1c-.55,0-1,.45-1,1v20.61c0,.55.45,1,1,1h13.75v1.64h-6.91c-.45,0-.82.37-.82.82v.61c0,.45.37.82.82.82h20.67c.45,0,.82-.37.82-.82v-.61c0-.45-.37-.82-.82-.82h-6.91v-1.64h13.75c.55,0,1-.45,1-1v-20.61c0-.55-.45-1-1-1Z"/>
              <rect class="cls-6" x="3.54" y="156.97" width="29.28" height="17.28"/>
            </g>
            <g>
              <path class="cls-5" d="M73.81,181.88c.6,0,1.09.49,1.09,1.1v20.09c0,.61-.49,1.1-1.09,1.1h-32.22c-.6,0-1.09-.49-1.09-1.1v-20.09c0-.61.49-1.1,1.09-1.1h32.22Z"/>
              <rect class="cls-6" x="43.15" y="184.45" width="28.18" height="17.14"/>
              <g>
                <path class="cls-6" d="M73.1,192.1c.53,0,.96.43.96.96h0c0,.53-.43.97-.96.97h0c-.53,0-.96-.43-.96-.97h0c0-.53.43-.96.96-.96h0Z"/>
                <path class="cls-6" d="M73.03,187.57c.21,0,.39.17.39.38v2.25c0,.21-.17.38-.39.38h0c-.21,0-.39-.17-.39-.38v-2.25c0-.21.17-.38.39-.38h0Z"/>
                <path class="cls-6" d="M73.03,195.45c.21,0,.39.17.39.38v2.25c0,.21-.17.39-.39.39h0c-.21,0-.39-.17-.39-.39v-2.25c0-.21.17-.38.39-.38h0Z"/>
              </g>
            </g>
            <g>
              <path class="cls-5" d="M53.87,139.01h12.55c.38,0,.68.31.68.68v20.12c0,.38-.31.68-.68.68h-12.55c-.38,0-.68-.31-.68-.68v-20.12c0-.38.31-.68.68-.68Z"/>
              <rect class="cls-6" x="54.79" y="140.67" width="10.71" height="17.6"/>
              <g>
                <path class="cls-6" d="M60.72,159.37c0,.33-.27.6-.6.6h0c-.33,0-.6-.27-.6-.6h0c0-.33.27-.6.6-.6h0c.33,0,.6.27.6.6h0Z"/>
                <path class="cls-6" d="M63.55,159.33c0,.13-.11.24-.24.24h-1.41c-.13,0-.24-.11-.24-.24h0c0-.13.11-.24.24-.24h1.41c.13,0,.24.11.24.24h0Z"/>
                <path class="cls-6" d="M58.63,159.33c0,.13-.11.24-.24.24h-1.4c-.13,0-.24-.11-.24-.24h0c0-.13.11-.24.24-.24h1.4c.13,0,.24.11.24.24h0Z"/>
              </g>
            </g>
            <path class="cls-4" d="M16.56,168.79v-.63c0-.72.13-1.33.4-1.81.26-.48.72-.98,1.38-1.49.78-.62,1.29-1.1,1.52-1.44.23-.34.34-.75.34-1.23,0-.55-.18-.98-.55-1.27-.37-.3-.9-.45-1.59-.45-.63,0-1.21.09-1.74.27-.53.18-1.05.39-1.56.64l-.83-1.74c1.34-.74,2.77-1.12,4.3-1.12,1.29,0,2.31.32,3.07.95.76.63,1.14,1.5,1.14,2.62,0,.49-.07.94-.22,1.32-.14.38-.36.75-.66,1.1-.29.35-.8.8-1.52,1.37-.61.48-1.02.88-1.23,1.2-.21.31-.31.74-.31,1.27v.44h-1.94ZM16.16,171.94c0-1,.48-1.49,1.45-1.49.48,0,.84.13,1.09.39.25.26.38.63.38,1.1s-.13.83-.38,1.11c-.25.28-.61.41-1.08.41s-.83-.13-1.08-.4c-.25-.27-.38-.64-.38-1.12Z"/>
            <path class="cls-3" d="M58.69,154.73c0-.48.13-.85.38-1.11.26-.25.62-.38,1.09-.38s.82.13,1.07.39c.25.26.37.63.37,1.09s-.13.83-.38,1.1c-.25.27-.61.41-1.07.41s-.83-.13-1.09-.39c-.26-.26-.39-.64-.39-1.12ZM61.03,151.6h-1.71l-.51-10h2.72l-.5,10Z"/>
            <g>
              <path class="cls-4" d="M47.2,193.49c0-.63.17-1.11.5-1.43.33-.33.8-.49,1.41-.49s1.06.17,1.39.51c.32.34.48.81.48,1.41s-.16,1.07-.49,1.43c-.33.35-.79.53-1.38.53s-1.07-.17-1.41-.51c-.33-.34-.5-.83-.5-1.45Z"/>
              <path class="cls-4" d="M54.85,193.49c0-.63.17-1.11.5-1.43.33-.33.8-.49,1.41-.49s1.06.17,1.39.51c.32.34.48.81.48,1.41s-.16,1.07-.49,1.43c-.33.35-.79.53-1.38.53s-1.07-.17-1.41-.51c-.33-.34-.5-.83-.5-1.45Z"/>
              <path class="cls-4" d="M62.51,193.49c0-.63.17-1.11.49-1.43.33-.33.8-.49,1.41-.49s1.06.17,1.39.51c.32.34.48.81.48,1.41s-.16,1.07-.49,1.43c-.33.35-.79.53-1.38.53s-1.07-.17-1.41-.51c-.34-.34-.5-.83-.5-1.45Z"/>
            </g>
            <g>
              <g>
                <path class="cls-5" d="M38.62,146.92c0,1.39-.36,2.47-1.07,3.25-.71.78-1.71,1.17-2.97,1.17-.8,0-1.5-.18-2.11-.54-.61-.36-1.08-.88-1.41-1.55-.33-.67-.49-1.45-.49-2.34,0-1.38.35-2.46,1.06-3.23.71-.77,1.71-1.16,2.99-1.16s2.2.4,2.92,1.19c.72.79,1.08,1.86,1.08,3.2ZM32.44,146.92c0,1.96.73,2.95,2.17,2.95s2.15-.98,2.15-2.95-.72-2.91-2.17-2.91c-.76,0-1.31.25-1.65.76-.34.5-.51,1.22-.51,2.16Z"/>
                <path class="cls-5" d="M34.58,151.61c-.84,0-1.6-.19-2.24-.57-.65-.38-1.16-.94-1.51-1.66-.34-.71-.52-1.53-.52-2.46,0-1.44.38-2.59,1.13-3.41.76-.83,1.83-1.25,3.19-1.25s2.35.43,3.12,1.27c.76.84,1.15,1.98,1.15,3.38s-.38,2.61-1.14,3.43c-.76.83-1.83,1.25-3.17,1.25ZM34.63,142.79c-1.2,0-2.14.36-2.79,1.08-.66.72-.99,1.75-.99,3.05,0,.84.16,1.59.46,2.22.3.62.74,1.1,1.3,1.43.56.33,1.23.5,1.97.5,1.2,0,2.11-.36,2.78-1.08.66-.72,1-1.76,1-3.07s-.34-2.28-1.01-3.02c-.67-.74-1.56-1.1-2.72-1.1ZM34.61,150.13c-1.12,0-2.44-.56-2.44-3.21,0-.99.19-1.76.56-2.31.39-.58,1.02-.87,1.87-.87,1.11,0,2.44.55,2.44,3.18s-1.32,3.21-2.42,3.21ZM34.6,144.27c-.67,0-1.14.21-1.43.63-.31.46-.47,1.13-.47,2.01,0,1.8.62,2.68,1.91,2.68s1.88-.88,1.88-2.68c0-2.37-1.08-2.64-1.9-2.64Z"/>
              </g>
              <g>
                <path class="cls-5" d="M43.56,153.81h-3.81v-.68l1.45-1.46c.43-.44.71-.75.85-.93.14-.18.24-.35.31-.52.07-.16.1-.34.1-.52,0-.25-.07-.46-.23-.6-.15-.15-.36-.22-.63-.22-.21,0-.42.04-.62.12-.2.08-.43.22-.7.43l-.49-.59c.31-.26.62-.45.91-.56.3-.11.61-.17.94-.17.52,0,.94.14,1.26.41.32.27.47.64.47,1.1,0,.25-.05.5-.14.72s-.23.46-.42.71c-.19.24-.5.57-.94.98l-.98.94v.04h2.67v.8Z"/>
                <path class="cls-5" d="M43.56,154.08h-3.81c-.15,0-.27-.12-.27-.27v-.68c0-.07.03-.14.08-.19l1.45-1.46c.42-.42.7-.73.83-.9.12-.16.21-.32.27-.45.05-.13.08-.27.08-.42,0-.18-.05-.31-.14-.41-.2-.19-.62-.19-.98-.04-.18.07-.39.2-.63.39-.12.09-.28.07-.37-.04l-.49-.6c-.09-.11-.08-.28.03-.37.33-.28.67-.49.99-.61.32-.12.67-.18,1.04-.18.59,0,1.07.16,1.43.47.38.33.57.76.57,1.3,0,.29-.05.56-.16.82-.1.25-.25.51-.46.77-.2.26-.52.59-.97,1.01l-.54.52h2.04c.15,0,.27.12.27.27v.8c0,.15-.12.27-.27.27ZM40.02,153.54h3.27v-.26h-2.4c-.15,0-.27-.12-.27-.27,0-.07.03-.18.08-.23l.98-.95c.43-.4.74-.72.91-.95.17-.22.3-.44.38-.64.08-.19.12-.4.12-.62,0-.38-.12-.67-.38-.9-.27-.23-.62-.34-1.08-.34-.3,0-.59.05-.85.15-.2.08-.41.19-.63.35l.15.19c.2-.14.38-.25.55-.31.55-.21,1.19-.18,1.54.16.21.2.31.46.31.79,0,.22-.04.42-.11.62-.08.18-.19.38-.34.58-.15.2-.43.51-.87.96l-1.37,1.38v.31Z"/>
              </g>
            </g>
            <g>
              <path class="cls-5" d="M14.75,195.41c.79,0,1.43.22,1.9.67.47.45.71,1.06.71,1.83,0,.92-.28,1.62-.85,2.12-.56.49-1.38.74-2.43.74-.91,0-1.65-.15-2.22-.45v-1.5c.3.16.64.29,1.04.39.39.1.77.15,1.12.15,1.06,0,1.59-.44,1.59-1.31s-.55-1.24-1.65-1.24c-.2,0-.42.02-.66.06-.24.04-.43.08-.58.12l-.69-.37.31-4.19h4.46v1.47h-2.94l-.15,1.61.2-.04c.23-.05.51-.08.85-.08Z"/>
              <path class="cls-5" d="M20.88,201.74s-.09,0-.14,0c-.41-.06-.74-.38-.81-.79l-1.65-10.2h-5.12c-.53,0-.96-.43-.96-.96s.43-.96.96-.96h5.94c.47,0,.87.34.95.8l1.3,8.04,6.29-12.81c.16-.33.5-.54.86-.54h8.04c.53,0,.96.43.96.96s-.43.96-.96.96h-7.44l-7.36,14.97c-.16.33-.5.54-.86.54Z"/>
            </g>
            <g>
              <path class="cls-5" d="M51.77,169.95c-.47,0-.98.06-1.51.18-.53.12-1.03.3-1.48.54-.11.06-.16.2-.11.31l.55,1.21c.03.05.07.1.14.12.06.02.13.02.18,0,.33-.16.69-.3,1.05-.41.35-.11.72-.17,1.1-.17.43,0,.74.1.93.3.19.2.29.53.29.97v.19l-1.14.04c-1.31.04-2.26.28-2.91.72-.67.46-1.02,1.16-1.02,2.05,0,.84.25,1.5.73,1.97.48.46,1.15.7,2,.7.64,0,1.18-.1,1.6-.29.34-.15.67-.41,1-.77l.23.74c.03.1.12.17.23.17h1.21c.13,0,.24-.11.24-.24v-5.36c0-1.01-.29-1.77-.86-2.26-.56-.48-1.38-.72-2.45-.72ZM52.9,174.75v.44c0,.55-.16.97-.48,1.27-.33.3-.76.45-1.32.45-.36,0-.62-.08-.79-.23-.16-.15-.24-.36-.24-.65,0-.41.14-.7.44-.89.32-.21.87-.34,1.62-.36l.77-.03Z"/>
              <path class="cls-5" d="M63.7,172.22h-2.63v-2.7c0-.13-.11-.24-.24-.24h-1.3c-.13,0-.24.11-.24.24v2.7h-2.62c-.13,0-.24.11-.24.24v1.28c0,.13.11.24.24.24h2.62v2.68c0,.13.11.24.24.24h1.3c.13,0,.24-.11.24-.24v-2.68h2.63c.13,0,.24-.11.24-.24v-1.28c0-.13-.11-.24-.24-.24Z"/>
              <path class="cls-5" d="M69.67,169.95c-.89,0-1.61.27-2.17.81,0-.04,0-.07,0-.11.02-.39.03-.69.03-.89v-2.66c0-.13-.11-.24-.24-.24h-1.69c-.13,0-.24.11-.24.24v11.2c0,.13.11.24.24.24h1.27c.11,0,.2-.07.23-.17l.21-.63c.58.62,1.37.94,2.33.94,1.07,0,1.92-.4,2.53-1.18.59-.77.89-1.84.89-3.19s-.3-2.41-.88-3.17c-.6-.78-1.44-1.17-2.51-1.17ZM70.84,174.29c0,.85-.14,1.49-.43,1.92-.27.41-.64.61-1.16.61-.62,0-1.05-.18-1.31-.55-.28-.39-.42-1.05-.42-1.97v-.11c0-.89.15-1.51.42-1.87.26-.34.67-.51,1.28-.51.4,0,1.62,0,1.62,2.47Z"/>
              <path class="cls-5" d="M74.31,173.67h6.93c.13,0,.24.11.24.24v1.28c0,.13-.11.24-.24.24h-6.93c-.13,0-.24-.11-.24-.24v-1.28c0-.13.11-.24.24-.24Z"/>
              <path class="cls-5" d="M74.31,170.79h6.93c.13,0,.24.11.24.24v1.29c0,.13-.11.24-.24.24h-6.93c-.13,0-.24-.11-.24-.24v-1.29c0-.13.11-.24.24-.24Z"/>
              <path class="cls-5" d="M88.5,176.26c-.63.35-1.31.53-2.02.53-.59,0-1.02-.19-1.32-.58-.31-.4-.47-1.03-.47-1.86,0-1.68.6-2.5,1.83-2.5.43,0,1,.13,1.68.4.06.02.13.02.19,0,.06-.03.1-.08.13-.13l.51-1.36c.04-.12-.01-.25-.12-.3-.7-.33-1.5-.49-2.37-.49-1.3,0-2.32.39-3.01,1.16-.69.76-1.05,1.85-1.05,3.25s.34,2.44,1,3.18c.67.76,1.65,1.14,2.92,1.14.5,0,.94-.04,1.3-.12.37-.08.71-.22,1.04-.41.07-.04.12-.12.12-.21v-1.47c0-.08-.05-.16-.12-.21-.07-.04-.16-.04-.24,0Z"/>
            </g>
          </g>
          <g>
            <path class="cls-7" d="M239.14,34.35h-7.34c-.54,0-.98.44-.98.98s.44.98.98.98h7.34c.95,0,1.71.77,1.71,1.71v21.55c0,.95-.77,1.71-1.71,1.71h-36.83c-.95,0-1.71-.77-1.71-1.71V18.02c0-.54-.44-.98-.98-.98s-.98.44-.98.98v41.55c0,2.03,1.65,3.68,3.68,3.68h36.83c2.03,0,3.68-1.65,3.68-3.68v-21.55c0-2.02-1.65-3.67-3.68-3.67Z"/>
            <g>
              <path class="cls-5" d="M179.31,21.44h53.12c1,0,1.8.81,1.8,1.8v33.13c0,1-.81,1.8-1.8,1.8h-53.12c-.99,0-1.8-.81-1.8-1.8V23.24c0-.99.81-1.8,1.8-1.8Z"/>
              <rect class="cls-6" x="181.88" y="25.67" width="46.47" height="28.27"/>
              <polygon class="cls-3" points="228.35 53.95 228.35 25.67 181.88 53.95 228.35 53.95"/>
              <g>
                <path class="cls-6" d="M231.26,41.32c.88,0,1.59-.71,1.59-1.59h0c0-.88-.71-1.59-1.59-1.59h0c-.88,0-1.59.71-1.59,1.59h0c0,.88.71,1.59,1.59,1.59h0Z"/>
                <path class="cls-6" d="M231.16,48.8c.35,0,.64-.29.64-.64v-3.71c0-.35-.28-.64-.64-.64h0c-.35,0-.63.29-.63.64v3.71c0,.35.29.64.63.64h0Z"/>
                <path class="cls-6" d="M231.16,35.81c.35,0,.64-.29.64-.64v-3.71c0-.35-.28-.64-.64-.64h0c-.35,0-.63.28-.63.64v3.71c0,.35.29.64.63.64h0Z"/>
              </g>
            </g>
            <g>
              <path class="cls-7" d="M208.93,45.38c-.2.53-.79.79-1.32.59h0c-.53-.2-.79-.79-.59-1.32l.63-1.65c.2-.53.79-.79,1.31-.59h0c.53.2.79.79.6,1.32l-.62,1.65Z"/>
              <path class="cls-4" d="M210.17,43.54c-.25.66-.98.99-1.64.74l-.49-.19c-.66-.25-.99-.98-.74-1.64l12.36-32.65c.25-.66.98-.99,1.64-.74l.49.19c.66.25.99.98.74,1.64l-12.36,32.65Z"/>
              <path class="cls-10" d="M209.92,41.16c-.09.23-.35.35-.58.26h0c-.23-.09-.35-.35-.26-.58l.9-2.39c.09-.23.35-.35.58-.26h0c.23.09.35.35.26.58l-.9,2.39Z"/>
            </g>
            <g>
              <path class="cls-5" d="M192.9,7.63l-2.18,1.31c-3.75-6.24-11.88-8.26-18.12-4.51-6.24,3.75-8.26,11.88-4.51,18.12l-2.18,1.31c-4.47-7.44-2.06-17.14,5.38-21.61,7.44-4.48,17.14-2.06,21.61,5.38Z"/>
              <path class="cls-5" d="M173.91,31.75c.72,1.21.33,2.77-.87,3.49l-2.09,1.26c-1.21.72-2.77.33-3.49-.87l-6.18-10.27c-.72-1.2-.34-2.77.87-3.49l2.09-1.26c1.21-.72,2.77-.33,3.49.87l6.18,10.27Z"/>
              <path class="cls-5" d="M202.48,14.57c.72,1.2.34,2.77-.87,3.49l-2.09,1.26c-1.2.72-2.77.33-3.49-.87l-6.17-10.27c-.73-1.21-.33-2.77.87-3.49l2.09-1.26c1.21-.73,2.77-.34,3.49.87l6.18,10.27Z"/>
            </g>
          </g>
          <g>
            <g>
              <path class="cls-5" d="M248.45,222.6c0,2.09-1.69,3.78-3.78,3.78H115.28c-2.08,0-3.78-1.69-3.78-3.78v-77.63c0-2.08,1.7-3.78,3.78-3.78h129.4c2.09,0,3.78,1.69,3.78,3.78v77.63Z"/>
              <rect class="cls-6" x="120.31" y="147.22" width="119.32" height="73.15"/>
              <polygon class="cls-15" points="239.64 220.37 120.31 220.37 239.64 147.22 239.64 220.37"/>
              <path class="cls-5" d="M258.27,237.07c-1.98,2.62-6.05,2.6-8.13,2.6H109.81c-2.09,0-4.91.4-8.13-2.6l-4.35-5.2c-1.05-1.21-1.08-2.6,3.78-2.6h157.73c4.82,0,4.82,1.43,3.78,2.6l-4.35,5.2Z"/>
            </g>
            <g>
              <path class="cls-11" d="M256,170.07c-2.27,5.98-23.79,9.06-45.73.73-21.94-8.33-36-24.91-33.73-30.9l13.35-35.15c11.15-8.02,26.51,7.82,40.48,13.12,14.31,5.43,36.12,3.53,38.98,17.05l-13.34,35.14Z"/>
              <g>
                <path class="cls-5" d="M220.65,140.7c-.53,0-1.03-.22-1.39-.6l-41.1-43.55c-.54-.57-.67-1.41-.34-2.12.32-.68,1-1.11,1.73-1.11.04,0,58.22,3.45,58.22,3.45.44.03.85.2,1.17.49l44.2,40.06c.58.53.78,1.37.5,2.1-.28.74-.99,1.22-1.78,1.23l-61.19.05Z"/>
                <path class="cls-5" d="M284.41,135.9l-44.19-40.06c-.65-.58-1.47-.93-2.35-.98l-58.1-3.44c-.08,0-.15,0-.23,0-1.48,0-2.83.85-3.46,2.21-.66,1.42-.39,3.1.68,4.24l41.1,43.55c.72.77,1.72,1.2,2.78,1.2h0l61.2-.05c1.58,0,3-.98,3.56-2.45.57-1.47.17-3.15-1-4.21ZM220.65,138.79l-41.1-43.56,58.1,3.44,44.19,40.06-61.19.05Z"/>
              </g>
              <path class="cls-4" d="M263.53,193.7c-1.06,0-1.91-.86-1.91-1.91v-40.75l-32.59-31.79c-.76-.74-.78-1.95-.04-2.7.74-.76,1.95-.77,2.71-.04l33.17,32.36c.37.36.58.85.58,1.37v41.56c0,1.05-.86,1.91-1.91,1.91Z"/>
              <path class="cls-10" d="M271.89,198.77c.03,3.06-2.43,5.57-5.48,5.6l-5.54.06c-3.06.03-5.57-2.43-5.6-5.48l-.08-7.66c-.03-3.06,2.37-11.11,5.43-11.14l5.54-.06c3.06-.03,5.62,7.97,5.66,11.03l.08,7.65Z"/>
            </g>
          </g>
          <image width="2092" height="701" transform="translate(130.61 167.84) scale(.05)" xlink:href="D:\ZuraCloud\iqrew-website\src\assets\images\iqrew-logo.png"/>
          <g>
            <path class="cls-5" d="M42.95,261.68h82.29c1.33,0,2.4,1.08,2.4,2.4v49.36c0,1.32-1.08,2.4-2.4,2.4H42.95c-1.33,0-2.4-1.08-2.4-2.4v-49.36c0-1.33,1.08-2.4,2.4-2.4Z"/>
            <rect class="cls-3" x="46.15" y="265.51" width="75.88" height="46.51"/>
            <path class="cls-5" d="M133.88,322.64c-1.26,1.67-3.85,1.66-5.17,1.66H39.48c-1.33,0-3.12.25-5.17-1.66l-2.77-3.3c-.67-.77-.69-1.66,2.4-1.66h100.3c3.07,0,3.07.91,2.41,1.66l-2.77,3.3Z"/>
            <polygon class="cls-4" points="106.06 304.11 61.3 304.11 61.3 291.82 83.86 285.68 106.06 291.82 106.06 304.11"/>
            <rect class="cls-6" x="65.77" y="247.71" width="36.63" height="56.41"/>
            <g>
              <path class="cls-2" d="M79.14,256.55h-.89v-3.47h-1.14v-.74h3.18v.74h-1.14v3.47Z"/>
              <path class="cls-2" d="M83.36,256.55h-2.43v-4.21h2.43v.73h-1.53v.93h1.43v.73h-1.43v1.09h1.53v.74Z"/>
              <path class="cls-2" d="M86.73,255.38c0,.38-.14.68-.41.9-.27.22-.66.33-1.15.33-.45,0-.85-.08-1.19-.25v-.83c.28.13.52.22.72.27.2.05.38.08.54.08.19,0,.35-.04.45-.11.1-.08.16-.19.16-.33,0-.08-.02-.16-.07-.22-.05-.06-.11-.12-.2-.19-.09-.06-.27-.15-.55-.28-.26-.12-.45-.24-.58-.35-.13-.11-.23-.24-.31-.39-.08-.15-.11-.32-.11-.52,0-.38.12-.67.38-.88.25-.21.6-.32,1.05-.32.22,0,.43.03.63.08s.41.12.62.22l-.29.7c-.23-.09-.41-.16-.56-.19-.15-.04-.29-.06-.43-.06-.17,0-.3.04-.39.12-.09.08-.14.18-.14.31,0,.08.02.15.06.21.04.06.09.12.17.17.08.05.27.15.57.3.4.19.66.38.81.57.15.19.22.42.22.69Z"/>
              <path class="cls-2" d="M89.12,256.55h-.89v-3.47h-1.14v-.74h3.18v.74h-1.14v3.47Z"/>
            </g>
            <g>
              <rect class="cls-2" x="68.06" y="266.05" width="3.23" height="3.23"/>
              <rect class="cls-2" x="68.06" y="270.12" width="3.23" height="3.23"/>
              <rect class="cls-2" x="68.06" y="274.19" width="3.23" height="3.23"/>
            </g>
            <g>
              <rect class="cls-2" x="68.06" y="284.61" width="3.23" height="3.23"/>
              <rect class="cls-2" x="68.06" y="288.68" width="3.23" height="3.23"/>
              <rect class="cls-2" x="68.06" y="292.75" width="3.23" height="3.23"/>
            </g>
            <rect class="cls-2" x="73.12" y="259.48" width="25.56" height="3.26"/>
            <rect class="cls-2" x="73.12" y="279.77" width="25.56" height="3.26"/>
            <rect class="cls-2" x="73.12" y="267.35" width="25.56" height=".9"/>
            <rect class="cls-2" x="73.12" y="271.35" width="25.56" height=".9"/>
            <rect class="cls-2" x="73.12" y="275.36" width="25.56" height=".9"/>
            <rect class="cls-2" x="73.12" y="293.47" width="25.56" height=".9"/>
            <rect class="cls-2" x="73.12" y="286.17" width="25.56" height=".9"/>
            <rect class="cls-2" x="73.12" y="289.82" width="25.56" height=".9"/>
            <polygon class="cls-4" points="106.06 311.06 61.3 311.06 61.3 294.1 83.68 302.58 106.06 294.1 106.06 311.06"/>
            <path class="cls-6" d="M103.26,303.62c0,.54-.08,1.03-.26,1.48-.17.45-.41.8-.73,1.05-.31.25-.68.38-1.09.38-.28,0-.52-.07-.74-.2-.21-.13-.37-.31-.46-.52h-.09c-.4.48-.92.72-1.54.72-.66,0-1.18-.2-1.57-.6-.38-.4-.57-.95-.57-1.64,0-.79.25-1.43.75-1.91.5-.48,1.16-.72,1.96-.72.32,0,.68.03,1.06.09.39.06.71.13.96.22l-.13,2.74c0,.52.14.78.43.78.24,0,.43-.18.57-.53.14-.35.21-.81.21-1.37,0-.6-.13-1.13-.38-1.6-.25-.46-.6-.81-1.06-1.06-.46-.24-.97-.37-1.56-.37-.75,0-1.41.16-1.97.47-.56.31-.98.76-1.28,1.34-.3.58-.45,1.26-.45,2.03,0,1.03.28,1.82.83,2.38.55.55,1.35.83,2.4.83.4,0,.83-.04,1.31-.13.47-.09.94-.22,1.4-.38v1.08c-.8.34-1.69.51-2.66.51-1.42,0-2.53-.38-3.33-1.12-.79-.75-1.19-1.79-1.19-3.12,0-.92.2-1.76.61-2.51.41-.75.98-1.35,1.73-1.77.75-.43,1.61-.64,2.59-.64.82,0,1.56.17,2.21.51.65.34,1.15.82,1.5,1.43.35.62.53,1.34.53,2.15ZM97.52,304.32c0,.79.32,1.18.97,1.18.34,0,.59-.12.77-.36.18-.24.28-.62.32-1.16l.07-1.24c-.19-.04-.4-.06-.64-.06-.47,0-.83.15-1.09.44-.26.29-.39.69-.39,1.19Z"/>
          </g>
          <g>
            <path class="cls-5" d="M280.38,248.39h75.43c1.21,0,2.2.99,2.2,2.2v45.25c0,1.21-.99,2.2-2.2,2.2h-75.44c-1.21,0-2.2-.99-2.2-2.2v-45.25c0-1.22.99-2.2,2.2-2.2Z"/>
            <rect class="cls-6" x="283.31" y="251.89" width="69.56" height="42.64"/>
            <path class="cls-5" d="M363.73,304.27c-1.16,1.53-3.53,1.52-4.74,1.52h-81.8c-1.22,0-2.87.23-4.74-1.52l-2.54-3.03c-.61-.71-.63-1.52,2.2-1.52h91.95c2.81,0,2.81.84,2.2,1.52l-2.54,3.03Z"/>
            <path class="cls-3" d="M291.51,264.54v-.58c0-.67.12-1.22.37-1.66.24-.44.66-.9,1.27-1.37.72-.57,1.18-1.01,1.39-1.33.21-.31.31-.69.31-1.13,0-.51-.17-.9-.51-1.17-.34-.27-.83-.41-1.46-.41-.57,0-1.11.08-1.6.25-.49.17-.97.36-1.43.59l-.77-1.6c1.23-.68,2.54-1.03,3.95-1.03,1.18,0,2.12.29,2.82.87.7.58,1.04,1.38,1.04,2.41,0,.45-.07.86-.2,1.21-.13.35-.33.69-.6,1.01-.27.32-.74.74-1.39,1.25-.56.44-.94.81-1.13,1.1-.19.29-.29.68-.29,1.17v.41h-1.78ZM291.14,267.44c0-.92.45-1.37,1.33-1.37.44,0,.77.12,1,.36.23.24.35.58.35,1.02s-.12.77-.35,1.02c-.23.25-.56.38-.99.38s-.76-.12-.99-.37c-.23-.24-.34-.58-.34-1.03Z"/>
            <rect class="cls-3" x="299.7" y="256.64" width="46.85" height="4.77"/>
            <rect class="cls-3" x="291.16" y="283.62" width="29.79" height="2.99"/>
            <rect class="cls-3" x="299.7" y="263.72" width="46.85" height=".82"/>
            <rect class="cls-3" x="299.7" y="266.68" width="46.85" height=".82"/>
            <rect class="cls-3" x="291.16" y="273.47" width="46.85" height=".82"/>
            <rect class="cls-3" x="291.16" y="276.43" width="25.18" height=".82"/>
            <rect class="cls-3" x="291.16" y="279.39" width="25.18" height=".82"/>
            <g>
              <path class="cls-5" d="M356.53,305.65c1.03,0,1.86-.84,1.86-1.87v-34.28c0-1.03-.83-1.87-1.86-1.87h-54.97c-1.03,0-1.87.83-1.87,1.87v34.28c0,1.03.84,1.87,1.87,1.87h54.97Z"/>
              <rect class="cls-3" x="304.22" y="272.02" width="48.08" height="29.26"/>
              <polygon class="cls-3" points="352.3 301.28 352.3 272.02 304.22 301.28 352.3 301.28"/>
              <g>
                <path class="cls-6" d="M355.31,288.21c.91,0,1.65-.74,1.65-1.65h0c0-.91-.73-1.65-1.65-1.65h0c-.9,0-1.64.74-1.64,1.65h0c0,.91.74,1.65,1.64,1.65h0Z"/>
                <path class="cls-6" d="M355.2,295.95c.37,0,.66-.3.66-.66v-3.84c0-.36-.29-.66-.66-.66h0c-.36,0-.66.3-.66.66v3.84c0,.36.29.66.66.66h0Z"/>
                <path class="cls-6" d="M355.2,282.51c.37,0,.66-.29.66-.66v-3.84c0-.37-.29-.66-.66-.66h0c-.36,0-.66.29-.66.66v3.84c0,.36.29.66.66.66h0Z"/>
              </g>
            </g>
            <path class="cls-6" d="M327.74,272.7c-7.13,0-12.93,5.8-12.93,12.93s5.8,12.94,12.93,12.94,12.94-5.8,12.94-12.94-5.8-12.93-12.94-12.93ZM333.63,290.27c.4-1.3.65-2.65.72-4.03h5.06c-.13,2.44-1,4.69-2.41,6.52-.99-1.02-2.13-1.86-3.37-2.49ZM318.47,292.76c-1.41-1.82-2.28-4.07-2.41-6.52h5.29c.03,1.36.23,2.69.59,3.98-1.28.64-2.45,1.49-3.47,2.54ZM321.92,281.52c-.31,1.13-.5,2.3-.56,3.5h-5.3c.12-2.32.92-4.47,2.21-6.24,1.06,1.14,2.3,2.06,3.66,2.75ZM328.47,282.88c1.48-.08,2.92-.42,4.26-.98.24,1.01.38,2.05.41,3.11h-4.66v-2.14ZM328.47,281.65v-7.13c1.81,1.73,3.15,3.85,3.92,6.19-1.23.53-2.55.86-3.92.94ZM327.24,274.95v6.71c-1.33-.05-2.62-.33-3.82-.81.78-2.22,2.08-4.24,3.82-5.9ZM327.24,282.89v2.13h-4.65c.06-1.02.22-2.02.47-2.99,1.32.51,2.73.8,4.18.86ZM322.58,286.25h4.66v2.62c-1.45.05-2.85.35-4.17.85-.3-1.12-.47-2.29-.5-3.47ZM327.24,290.09v6.65c-1.72-1.64-3.02-3.65-3.8-5.85,1.2-.48,2.49-.75,3.8-.8ZM328.47,296.31v-6.21c1.26.08,2.48.36,3.63.82-.79,2.02-2.03,3.86-3.63,5.39ZM328.47,288.87v-2.63h4.65c-.07,1.2-.28,2.38-.62,3.51-1.27-.51-2.63-.81-4.03-.89ZM334.36,285.02c-.03-1.25-.21-2.47-.51-3.65,1.24-.66,2.37-1.54,3.35-2.59,1.29,1.77,2.08,3.92,2.21,6.24h-5.05ZM336.42,277.81c-.85.94-1.84,1.73-2.92,2.34-.76-2.24-2.02-4.31-3.69-6.04,2.61.47,4.91,1.8,6.61,3.69ZM326.46,274c-1.89,1.78-3.3,3.95-4.16,6.34-1.21-.63-2.31-1.49-3.25-2.52,1.87-2.08,4.48-3.5,7.41-3.82ZM319.27,293.7c.89-.94,1.92-1.71,3.05-2.3.78,2.15,2,4.12,3.62,5.78-2.6-.4-4.92-1.66-6.66-3.48ZM329.29,297.22c1.73-1.64,3.06-3.61,3.92-5.78,1.1.58,2.1,1.34,2.98,2.26-1.79,1.88-4.21,3.16-6.9,3.52Z"/>
            <g>
              <path class="cls-4" d="M354.34,311.7c.58.88.33,2.06-.55,2.63l-2.72,1.78c-.88.57-2.06.33-2.63-.55l-9.23-14.12c-.58-.88-.33-2.06.55-2.63l2.72-1.78c.88-.57,2.06-.33,2.63.55l9.23,14.13Z"/>
              <path class="cls-4" d="M335.35,302c-4.51,0-8.7-2.28-11.19-6.1-4.02-6.16-2.37-14.38,3.67-18.32,2.11-1.38,4.55-2.1,7.07-2.1,4.51,0,8.69,2.28,11.19,6.1,4.02,6.16,2.38,14.38-3.67,18.33-2.1,1.38-4.55,2.1-7.06,2.1ZM334.9,278.84c-1.86,0-3.67.54-5.22,1.55-4.49,2.93-5.7,9.06-2.69,13.66,1.87,2.87,5,4.58,8.37,4.58,1.86,0,3.67-.54,5.22-1.55,4.49-2.93,5.7-9.06,2.69-13.66-1.87-2.87-5-4.57-8.37-4.57Z"/>
            </g>
          </g>
          <path class="cls-5" d="M145.23,137.84c-.28,0-.5-.22-.5-.5v-3c0-.28.22-.5.5-.5s.5.22.5.5v3c0,.28-.22.5-.5.5ZM145.23,131.84c-.28,0-.5-.22-.5-.5v-3c0-.28.22-.5.5-.5s.5.22.5.5v3c0,.28-.22.5-.5.5ZM145.23,125.84c-.28,0-.5-.22-.5-.5v-3c0-.28.22-.5.5-.5s.5.22.5.5v3c0,.28-.22.5-.5.5ZM145.23,119.84c-.28,0-.5-.22-.5-.5v-3c0-.28.22-.5.5-.5s.5.22.5.5v3c0,.28-.22.5-.5.5ZM145.23,113.84c-.28,0-.5-.22-.5-.5v-3c0-.28.22-.5.5-.5s.5.22.5.5v3c0,.28-.22.5-.5.5ZM145.2,107.84c-.25,0-.47-.19-.5-.45-.09-.9-.46-1.75-1.05-2.44-.18-.21-.15-.53.06-.7.21-.18.53-.15.7.06.72.85,1.17,1.88,1.28,2.99.03.27-.17.52-.45.55-.02,0-.03,0-.05,0ZM141.54,103.54s-.09,0-.13-.02c-.38-.1-.78-.16-1.19-.16h-1.67c-.28,0-.5-.22-.5-.5s.22-.5.5-.5h1.67c.49,0,.98.06,1.45.19.27.07.42.35.35.61-.06.22-.26.37-.48.37ZM135.56,103.36h-3c-.28,0-.5-.22-.5-.5s.22-.5.5-.5h3c.28,0,.5.22.5.5s-.22.5-.5.5ZM129.56,103.36h-3c-.28,0-.5-.22-.5-.5s.22-.5.5-.5h3c.28,0,.5.22.5.5s-.22.5-.5.5ZM123.56,103.36h-3c-.28,0-.5-.22-.5-.5s.22-.5.5-.5h3c.28,0,.5.22.5.5s-.22.5-.5.5ZM117.56,103.36h-3c-.28,0-.5-.22-.5-.5s.22-.5.5-.5h3c.28,0,.5.22.5.5s-.22.5-.5.5ZM111.56,103.36h-3c-.28,0-.5-.22-.5-.5s.22-.5.5-.5h3c.28,0,.5.22.5.5s-.22.5-.5.5ZM105.56,103.36h-3c-.28,0-.5-.22-.5-.5s.22-.5.5-.5h3c.28,0,.5.22.5.5s-.22.5-.5.5Z"/>
          <path class="cls-8" d="M149.08,305.36h-3c-.28,0-.5-.22-.5-.5s.22-.5.5-.5h3c.28,0,.5.22.5.5s-.22.5-.5.5ZM143.08,305.36h-3c-.28,0-.5-.22-.5-.5s.22-.5.5-.5h3c.28,0,.5.22.5.5s-.22.5-.5.5ZM137.08,305.36h-3c-.28,0-.5-.22-.5-.5s.22-.5.5-.5h3c.28,0,.5.22.5.5s-.22.5-.5.5ZM131.08,305.36h-1.86c-.28,0-.5-.22-.5-.5s.22-.5.5-.5h1.86c.28,0,.5.22.5.5s-.22.5-.5.5ZM152.04,305.02c-.2,0-.39-.12-.47-.32-.1-.26.03-.55.28-.65.85-.33,1.57-.9,2.08-1.65.16-.23.47-.29.7-.13.23.16.29.47.13.69-.63.92-1.51,1.62-2.54,2.02-.06.02-.12.03-.18.03ZM155.23,300.36c-.28,0-.5-.22-.5-.5v-3c0-.28.22-.5.5-.5s.5.22.5.5v3c0,.28-.22.5-.5.5ZM155.23,294.36c-.28,0-.5-.22-.5-.5v-3c0-.28.22-.5.5-.5s.5.22.5.5v3c0,.28-.22.5-.5.5ZM155.23,288.36c-.28,0-.5-.22-.5-.5v-3c0-.28.22-.5.5-.5s.5.22.5.5v3c0,.28-.22.5-.5.5ZM155.23,282.36c-.28,0-.5-.22-.5-.5v-3c0-.28.22-.5.5-.5s.5.22.5.5v3c0,.28-.22.5-.5.5ZM155.23,276.36c-.28,0-.5-.22-.5-.5v-3c0-.28.22-.5.5-.5s.5.22.5.5v3c0,.28-.22.5-.5.5ZM155.23,270.36c-.28,0-.5-.22-.5-.5v-3c0-.28.22-.5.5-.5s.5.22.5.5v3c0,.28-.22.5-.5.5ZM155.23,264.36c-.28,0-.5-.22-.5-.5v-3c0-.28.22-.5.5-.5s.5.22.5.5v3c0,.28-.22.5-.5.5ZM155.23,258.36c-.28,0-.5-.22-.5-.5v-3c0-.28.22-.5.5-.5s.5.22.5.5v3c0,.28-.22.5-.5.5ZM155.23,252.36c-.28,0-.5-.22-.5-.5v-3c0-.28.22-.5.5-.5s.5.22.5.5v3c0,.28-.22.5-.5.5ZM155.23,246.36c-.28,0-.5-.22-.5-.5v-3c0-.28.22-.5.5-.5s.5.22.5.5v3c0,.28-.22.5-.5.5Z"/>
          <path class="cls-8" d="M190.56,310.7c-.28,0-.5-.22-.5-.5v-3c0-.28.22-.5.5-.5s.5.22.5.5v3c0,.28-.22.5-.5.5ZM190.56,304.7c-.28,0-.5-.22-.5-.5v-3c0-.28.22-.5.5-.5s.5.22.5.5v3c0,.28-.22.5-.5.5ZM190.56,298.7c-.28,0-.5-.22-.5-.5v-3c0-.28.22-.5.5-.5s.5.22.5.5v3c0,.28-.22.5-.5.5ZM190.56,292.7c-.28,0-.5-.22-.5-.5v-3c0-.28.22-.5.5-.5s.5.22.5.5v3c0,.28-.22.5-.5.5ZM190.56,286.7c-.28,0-.5-.22-.5-.5v-3c0-.28.22-.5.5-.5s.5.22.5.5v3c0,.28-.22.5-.5.5ZM190.56,280.7c-.28,0-.5-.22-.5-.5v-3c0-.28.22-.5.5-.5s.5.22.5.5v3c0,.28-.22.5-.5.5ZM190.56,274.7c-.28,0-.5-.22-.5-.5v-3c0-.28.22-.5.5-.5s.5.22.5.5v3c0,.28-.22.5-.5.5ZM190.56,268.7c-.28,0-.5-.22-.5-.5v-3c0-.28.22-.5.5-.5s.5.22.5.5v3c0,.28-.22.5-.5.5ZM190.56,262.7c-.28,0-.5-.22-.5-.5v-3c0-.28.22-.5.5-.5s.5.22.5.5v3c0,.28-.22.5-.5.5ZM190.56,256.7c-.28,0-.5-.22-.5-.5v-3c0-.28.22-.5.5-.5s.5.22.5.5v3c0,.28-.22.5-.5.5ZM190.56,250.7c-.28,0-.5-.22-.5-.5v-3c0-.28.22-.5.5-.5s.5.22.5.5v3c0,.28-.22.5-.5.5ZM190.56,244.7c-.28,0-.5-.22-.5-.5v-2c0-.28.22-.5.5-.5s.5.22.5.5v2c0,.28-.22.5-.5.5Z"/>
          <path class="cls-8" d="M275.23,279.36h-3c-.28,0-.5-.22-.5-.5s.22-.5.5-.5h3c.28,0,.5.22.5.5s-.22.5-.5.5ZM269.23,279.36h-3c-.28,0-.5-.22-.5-.5s.22-.5.5-.5h3c.28,0,.5.22.5.5s-.22.5-.5.5ZM263.23,279.36h-3c-.28,0-.5-.22-.5-.5s.22-.5.5-.5h3c.28,0,.5.22.5.5s-.22.5-.5.5ZM257.23,279.36h-3c-.28,0-.5-.22-.5-.5s.22-.5.5-.5h3c.28,0,.5.22.5.5s-.22.5-.5.5ZM251.23,279.36h-3c-.28,0-.5-.22-.5-.5s.22-.5.5-.5h3c.28,0,.5.22.5.5s-.22.5-.5.5ZM245.23,279.36h-3c-.28,0-.5-.22-.5-.5s.22-.5.5-.5h3c.28,0,.5.22.5.5s-.22.5-.5.5ZM239.23,279.36h-3c-.28,0-.5-.22-.5-.5s.22-.5.5-.5h3c.28,0,.5.22.5.5s-.22.5-.5.5ZM233.23,279.36h-3c-.28,0-.5-.22-.5-.5s.22-.5.5-.5h3c.28,0,.5.22.5.5s-.22.5-.5.5ZM227.26,279.09c-.05,0-.11,0-.16-.03-1.05-.36-1.96-1.03-2.62-1.92-.16-.22-.12-.53.1-.7.22-.16.54-.12.7.1.54.73,1.29,1.28,2.14,1.57.26.09.4.38.31.64-.07.21-.27.34-.47.34ZM223.9,274.55c-.27,0-.49-.21-.5-.48v-.2s0-2.82,0-2.82c0-.28.22-.5.5-.5s.5.22.5.5v2.99c.01.28-.2.51-.48.52h-.02ZM223.89,268.55c-.28,0-.5-.22-.5-.5v-3c0-.28.22-.5.5-.5s.5.22.5.5v3c0,.28-.22.5-.5.5ZM223.89,262.55c-.28,0-.5-.22-.5-.5v-3c0-.28.22-.5.5-.5s.5.22.5.5v3c0,.28-.22.5-.5.5ZM223.89,256.55c-.28,0-.5-.22-.5-.5v-3c0-.28.22-.5.5-.5s.5.22.5.5v3c0,.28-.22.5-.5.5ZM223.89,250.55c-.28,0-.5-.22-.5-.5v-3c0-.28.22-.5.5-.5s.5.22.5.5v3c0,.28-.22.5-.5.5ZM223.89,244.55c-.28,0-.5-.22-.5-.5v-2.52c0-.28.22-.5.5-.5s.5.22.5.5v2.52c0,.28-.22.5-.5.5Z"/>
          <path class="cls-8" d="M107.89,220.7h-3c-.28,0-.5-.22-.5-.5s.22-.5.5-.5h3c.28,0,.5.22.5.5s-.22.5-.5.5ZM101.89,220.7h-3c-.28,0-.5-.22-.5-.5s.22-.5.5-.5h3c.28,0,.5.22.5.5s-.22.5-.5.5ZM95.89,220.7h-3c-.28,0-.5-.22-.5-.5s.22-.5.5-.5h3c.28,0,.5.22.5.5s-.22.5-.5.5ZM89.89,220.7h-3c-.28,0-.5-.22-.5-.5s.22-.5.5-.5h3c.28,0,.5.22.5.5s-.22.5-.5.5ZM83.89,220.7h-3c-.28,0-.5-.22-.5-.5s.22-.5.5-.5h3c.28,0,.5.22.5.5s-.22.5-.5.5ZM77.89,220.7h-3c-.28,0-.5-.22-.5-.5s.22-.5.5-.5h3c.28,0,.5.22.5.5s-.22.5-.5.5ZM71.89,220.7h-3c-.28,0-.5-.22-.5-.5s.22-.5.5-.5h3c.28,0,.5.22.5.5s-.22.5-.5.5ZM65.89,220.7h-3c-.28,0-.5-.22-.5-.5s.22-.5.5-.5h3c.28,0,.5.22.5.5s-.22.5-.5.5ZM59.89,220.7h-3c-.28,0-.5-.22-.5-.5s.22-.5.5-.5h3c.28,0,.5.22.5.5s-.22.5-.5.5ZM53.89,220.7h-3c-.28,0-.5-.22-.5-.5s.22-.5.5-.5h3c.28,0,.5.22.5.5s-.22.5-.5.5ZM47.89,220.7h-3c-.28,0-.5-.22-.5-.5s.22-.5.5-.5h3c.28,0,.5.22.5.5s-.22.5-.5.5ZM42.07,219.82c-.1,0-.2-.03-.28-.09-.92-.63-1.62-1.51-2.02-2.54-.1-.26.03-.55.28-.65.26-.1.55.03.65.28.33.85.9,1.57,1.66,2.08.23.16.29.47.13.69-.1.14-.25.22-.41.22ZM39.89,214.55c-.28,0-.5-.22-.5-.5v-3c0-.28.22-.5.5-.5s.5.22.5.5v3c0,.28-.22.5-.5.5ZM39.89,208.55c-.28,0-.5-.22-.5-.5v-.52c0-.28.22-.5.5-.5s.5.22.5.5v.52c0,.28-.22.5-.5.5Z"/>
          <path class="cls-8" d="M334.89,218.03h-.14c-.28,0-.5-.22-.5-.5s.22-.5.5-.5h.14c.87,0,1.71-.25,2.43-.71.23-.15.54-.08.69.15.15.23.08.54-.15.69-.88.57-1.91.87-2.97.87ZM331.75,218.03h-3c-.28,0-.5-.22-.5-.5s.22-.5.5-.5h3c.28,0,.5.22.5.5s-.22.5-.5.5ZM325.75,218.03h-3c-.28,0-.5-.22-.5-.5s.22-.5.5-.5h3c.28,0,.5.22.5.5s-.22.5-.5.5ZM319.75,218.03h-3c-.28,0-.5-.22-.5-.5s.22-.5.5-.5h3c.28,0,.5.22.5.5s-.22.5-.5.5ZM313.75,218.03h-3c-.28,0-.5-.22-.5-.5s.22-.5.5-.5h3c.28,0,.5.22.5.5s-.22.5-.5.5ZM307.75,218.03h-3c-.28,0-.5-.22-.5-.5s.22-.5.5-.5h3c.28,0,.5.22.5.5s-.22.5-.5.5ZM301.75,218.03h-3c-.28,0-.5-.22-.5-.5s.22-.5.5-.5h3c.28,0,.5.22.5.5s-.22.5-.5.5ZM295.75,218.03h-3c-.28,0-.5-.22-.5-.5s.22-.5.5-.5h3c.28,0,.5.22.5.5s-.22.5-.5.5ZM289.75,218.03h-3c-.28,0-.5-.22-.5-.5s.22-.5.5-.5h3c.28,0,.5.22.5.5s-.22.5-.5.5ZM283.75,218.03h-3c-.28,0-.5-.22-.5-.5s.22-.5.5-.5h3c.28,0,.5.22.5.5s-.22.5-.5.5ZM277.75,218.03h-3c-.28,0-.5-.22-.5-.5s.22-.5.5-.5h3c.28,0,.5.22.5.5s-.22.5-.5.5ZM271.75,218.03h-3c-.28,0-.5-.22-.5-.5s.22-.5.5-.5h3c.28,0,.5.22.5.5s-.22.5-.5.5ZM265.75,218.03h-3c-.28,0-.5-.22-.5-.5s.22-.5.5-.5h3c.28,0,.5.22.5.5s-.22.5-.5.5ZM259.75,218.03h-3c-.28,0-.5-.22-.5-.5s.22-.5.5-.5h3c.28,0,.5.22.5.5s-.22.5-.5.5ZM253.75,218.03h-3c-.28,0-.5-.22-.5-.5s.22-.5.5-.5h3c.28,0,.5.22.5.5s-.22.5-.5.5ZM339.5,214.98c-.07,0-.13-.01-.2-.04-.25-.11-.37-.4-.27-.66.23-.55.35-1.14.35-1.75v-1c0-.28.22-.5.5-.5s.5.22.5.5v1c0,.74-.14,1.46-.43,2.14-.08.19-.27.3-.46.3ZM339.89,209.03c-.28,0-.5-.22-.5-.5v-3c0-.28.22-.5.5-.5s.5.22.5.5v3c0,.28-.22.5-.5.5Z"/>
          <path class="cls-8" d="M257.23,108.03c-.28,0-.5-.22-.5-.5v-3c0-.28.22-.5.5-.5s.5.22.5.5v3c0,.28-.22.5-.5.5ZM257.23,102.03c-.28,0-.5-.22-.5-.5v-3c0-.28.22-.5.5-.5s.5.22.5.5v3c0,.28-.22.5-.5.5ZM257.23,96.03c-.28,0-.5-.22-.5-.5v-3c0-.28.22-.5.5-.5s.5.22.5.5v3c0,.28-.22.5-.5.5ZM257.23,90.03c-.28,0-.5-.22-.5-.5v-3c0-.28.22-.5.5-.5s.5.22.5.5v3c0,.28-.22.5-.5.5ZM257.23,84.03c-.28,0-.5-.22-.5-.5v-3c0-.28.22-.5.5-.5s.5.22.5.5v3c0,.28-.22.5-.5.5ZM257.23,78.03c-.28,0-.5-.22-.5-.5v-3c0-.28.22-.5.5-.5s.5.22.5.5v3c0,.28-.22.5-.5.5ZM257.23,72.03c-.28,0-.5-.22-.5-.5v-3c0-.28.22-.5.5-.5s.5.22.5.5v3c0,.28-.22.5-.5.5ZM257.23,66.03c-.28,0-.5-.22-.5-.5v-2.33c0-.25.02-.49.05-.73.04-.27.29-.47.56-.43.28.04.47.29.43.56-.03.2-.04.39-.04.6v2.33c0,.28-.22.5-.5.5ZM258.51,60.35c-.12,0-.24-.04-.34-.13-.21-.19-.22-.5-.04-.71.75-.83,1.71-1.41,2.79-1.67.27-.07.54.1.6.37.06.27-.1.54-.37.6-.88.21-1.67.68-2.28,1.36-.1.11-.23.17-.37.17ZM273.04,58.7h-3c-.28,0-.5-.22-.5-.5s.22-.5.5-.5h3c.28,0,.5.22.5.5s-.22.5-.5.5ZM267.04,58.7h-3c-.28,0-.5-.22-.5-.5s.22-.5.5-.5h3c.28,0,.5.22.5.5s-.22.5-.5.5Z"/>
          <path class="cls-8" d="M208.56,91.36c-.28,0-.5-.22-.5-.5v-2c0-.28.22-.5.5-.5s.5.22.5.5v2c0,.28-.22.5-.5.5ZM208.56,86.36c-.28,0-.5-.22-.5-.5v-3c0-.28.22-.5.5-.5s.5.22.5.5v3c0,.28-.22.5-.5.5ZM208.56,80.36c-.28,0-.5-.22-.5-.5v-3c0-.28.22-.5.5-.5s.5.22.5.5v3c0,.28-.22.5-.5.5ZM208.56,74.36c-.28,0-.5-.22-.5-.5v-3c0-.28.22-.5.5-.5s.5.22.5.5v3c0,.28-.22.5-.5.5ZM208.56,68.36c-.28,0-.5-.22-.5-.5v-3c0-.28.22-.5.5-.5s.5.22.5.5v3c0,.28-.22.5-.5.5Z"/>
        </g>
      </g>
    </g>
  </g>
</svg>