<svg width="19" height="17" viewBox="0 0 19 17" fill="none" xmlns="http://www.w3.org/2000/svg">
<path d="M18.6431 1.97679C17.9498 2.31203 17.211 2.53424 16.4409 2.64214C17.2332 2.12065 17.8379 1.30116 18.1222 0.313409C17.3835 0.798935 16.5679 1.14189 15.6986 1.33327C14.9972 0.509931 13.9974 0 12.9068 0C10.7908 0 9.08733 1.8933 9.08733 4.21432C9.08733 4.54828 9.11296 4.86939 9.17588 5.1751C5.99841 5.00426 3.1868 3.32547 1.29802 0.768108C0.968274 1.39878 0.774852 2.12065 0.774852 2.89774C0.774852 4.35689 1.45649 5.65035 2.47254 6.39919C1.85848 6.38634 1.25608 6.18982 0.745723 5.88026C0.745723 5.89311 0.745723 5.90981 0.745723 5.92651C0.745723 7.97394 2.07055 9.67456 3.80785 10.0663C3.49674 10.1601 3.15767 10.205 2.80578 10.205C2.56109 10.205 2.31407 10.1896 2.0822 10.1331C2.5774 11.8016 3.98263 13.0283 5.65351 13.0681C4.35316 14.1894 2.70208 14.8651 0.914675 14.8651C0.601239 14.8651 0.300619 14.8497 0 14.8073C1.69302 16.0108 3.69948 16.698 5.86324 16.698C12.8963 16.698 16.7415 10.2757 16.7415 4.70884C16.7415 4.52259 16.7356 4.34276 16.7275 4.16422C17.486 3.5708 18.1234 2.82967 18.6431 1.97679Z" fill="white"/>
</svg>
