<svg width="26" height="27" viewBox="0 0 26 27" fill="none" xmlns="http://www.w3.org/2000/svg">
<path d="M23.1192 0H1.99902C0.893395 0 0 0.976743 0 2.18482V24.0449C0 25.2493 0.893395 26.2288 1.99902 26.2288H23.1192C24.2198 26.2288 25.1157 25.2503 25.1157 24.0449V2.18482C25.1149 0.976743 24.219 0 23.1192 0ZM16.8822 7.78732C16.363 7.45501 15.9511 7.19246 15.4335 7.19246C14.9268 7.19246 14.494 7.33108 14.2725 7.56425C14.051 7.79558 13.9412 8.24356 13.9412 8.90543V9.88493H16.6499L16.0635 12.6095H13.9412V21.6628H10.5387V12.6095H8.95073V9.88493H10.5404V8.84485C10.5404 7.74968 10.6603 7.09424 10.8969 6.55354C11.1326 6.01468 11.5898 5.41431 12.2257 5.07466C12.8607 4.73592 13.8002 4.56517 14.7725 4.56517C15.7691 4.56517 16.5475 4.9287 17.5022 5.22153L16.8822 7.78732Z" fill="white"/>
</svg>
