<svg width="29" height="29" viewBox="0 0 29 29" fill="none" xmlns="http://www.w3.org/2000/svg">
<g clip-path="url(#clip0_589_13207)">
<path d="M7.99917 12.8377C9.73917 16.2048 12.5425 18.9532 15.9621 20.6784L18.6204 18.0608C18.9467 17.7396 19.43 17.6325 19.8529 17.7753C21.2063 18.2155 22.6683 18.4535 24.1667 18.4535C24.8313 18.4535 25.375 18.9889 25.375 19.6432V23.7956C25.375 24.45 24.8313 24.9854 24.1667 24.9854C12.8204 24.9854 3.625 15.9311 3.625 4.75911C3.625 4.10474 4.16875 3.56934 4.83333 3.56934H9.0625C9.72708 3.56934 10.2708 4.10474 10.2708 4.75911C10.2708 6.24634 10.5125 7.67407 10.9596 9.00662C11.0925 9.42305 10.9958 9.88706 10.6575 10.2202L7.99917 12.8377Z" fill="white"/>
</g>
<defs>
<clipPath id="clip0_589_13207">
<rect width="29" height="28.5547" fill="white"/>
</clipPath>
</defs>
</svg>
