<svg width="20" height="19" viewBox="0 0 20 19" fill="none" xmlns="http://www.w3.org/2000/svg">
<path fill-rule="evenodd" clip-rule="evenodd" d="M6.05591 0H13.323C16.6671 0 19.3789 2.65881 19.3789 5.9375V13.0625C19.3789 16.3412 16.6671 19 13.323 19H6.05591C2.71184 19 0 16.3412 0 13.0625V5.9375C0 2.65881 2.71184 0 6.05591 0ZM13.3232 17.2189C15.6608 17.2189 17.5624 15.3545 17.5624 13.0626V5.93761C17.5624 3.64574 15.6608 1.78136 13.3232 1.78136H6.05617C3.71859 1.78136 1.81704 3.64574 1.81704 5.93761V13.0626C1.81704 15.3545 3.71859 17.2189 6.05617 17.2189H13.3232Z" fill="white"/>
<path fill-rule="evenodd" clip-rule="evenodd" d="M4.8457 9.49987C4.8457 6.87662 7.0149 4.74976 9.69037 4.74976C12.3658 4.74976 14.535 6.87662 14.535 9.49987C14.535 12.1231 12.3658 14.25 9.69037 14.25C7.0149 14.25 4.8457 12.1231 4.8457 9.49987ZM6.66275 9.49998C6.66275 11.1363 8.02168 12.4686 9.69068 12.4686C11.3597 12.4686 12.7186 11.1363 12.7186 9.49998C12.7186 7.86248 11.3597 6.53134 9.69068 6.53134C8.02168 6.53134 6.66275 7.86248 6.66275 9.49998Z" fill="white"/>
<ellipse cx="14.8975" cy="4.39379" rx="0.645545" ry="0.632799" fill="white"/>
</svg>
