<svg width="26" height="20" viewBox="0 0 26 20" fill="none" xmlns="http://www.w3.org/2000/svg">
<path fill-rule="evenodd" clip-rule="evenodd" d="M20.8823 4.46948L20.896 4.47064L20.9097 4.47172C21.1218 4.48836 21.2778 4.51098 21.3885 4.53199C21.4669 4.78644 21.5674 5.24378 21.6424 6.01873C21.7386 7.01327 21.7734 8.28859 21.7734 9.97443C21.7734 11.6597 21.7387 12.9435 21.6421 13.9485C21.5693 14.7064 21.4723 15.1685 21.3933 15.4362C21.2986 15.4493 21.1757 15.4618 21.0198 15.4699L21.0106 15.4704L21.0014 15.4709C17.2764 15.682 8.82602 15.6829 5.05863 15.4738C4.86732 15.4575 4.72429 15.4365 4.62092 15.4169C4.54249 15.1624 4.44204 14.7051 4.36702 13.9301C4.27076 12.9356 4.23602 11.6603 4.23602 9.97443C4.23602 8.28859 4.27076 7.01327 4.36702 6.01873C4.44204 5.24378 4.54248 4.78644 4.62092 4.53199C4.73155 4.51098 4.88762 4.48836 5.09968 4.47172L5.11339 4.47064L5.12709 4.46948C8.7898 4.15821 17.2196 4.15821 20.8823 4.46948ZM0 9.97443C0 16.8267 0.541862 19.3686 4.76839 19.7002C8.6698 19.9212 17.3396 19.9212 21.241 19.7002C25.4675 19.4791 26.0094 16.8267 26.0094 9.97443C26.0094 3.12219 25.4675 0.58023 21.241 0.24867C17.3396 -0.08289 8.6698 -0.08289 4.76839 0.24867C0.541862 0.58023 0 3.12219 0 9.97443ZM12.8337 12.8247C11.4245 13.5432 9.75354 12.5196 9.75354 10.9378V9.01116C9.75354 7.42936 11.4245 6.40574 12.8337 7.12429L14.7229 8.08761C16.2641 8.87347 16.2641 11.0755 14.7229 11.8614L12.8337 12.8247Z" fill="white"/>
</svg>
