<svg width="640" height="520" viewBox="0 0 640 520" fill="none" xmlns="http://www.w3.org/2000/svg">
  <rect x="120" y="40" width="240" height="440" rx="32" fill="#F1F5FF"/>
  <rect x="150" y="80" width="180" height="120" rx="20" fill="#FFB662"/>
  <circle cx="190" cy="120" r="24" fill="white"/>
  <circle cx="240" cy="120" r="24" fill="#FFDDB4"/>
  <rect x="150" y="220" width="180" height="20" rx="6" fill="#CEDBFF"/>
  <rect x="150" y="250" width="120" height="20" rx="6" fill="#E7EDFF"/>
  <rect x="150" y="330" width="180" height="96" rx="16" fill="#FFFFFF"/>
  <rect x="170" y="352" width="80" height="16" rx="8" fill="#FF7A00"/>
  <rect x="170" y="378" width="120" height="12" rx="6" fill="#DCE5FF"/>
  <rect x="410" y="140" width="120" height="140" rx="22" fill="#3867FF" opacity="0.13"/>
  <rect x="60" y="320" width="120" height="120" rx="22" fill="#3867FF" opacity="0.06"/>
  <ellipse cx="200" cy="492" rx="180" ry="20" fill="#DCE5FF"/>
  <ellipse cx="420" cy="492" rx="180" ry="20" fill="#DCE5FF"/>
  <path d="M96 342C96 329.297 106.297 319 119 319H151V454H96V342Z" fill="#183052"/>
  <path d="M188 310C195.18 310 201 315.82 201 323V356H131V328C131 317.954 139.954 309 150 309H188Z" fill="#FF7A00"/>
  <rect x="131" y="356" width="70" height="104" fill="#fff"/>
  <path d="M520 356H450V454H520V356Z" fill="#183052"/>
  <path d="M520 356V328C520 317.954 511.046 309 501 309H463C455.82 309 450 314.82 450 322V356H520Z" fill="#3867FF"/>
  <rect x="480" y="240" width="80" height="20" rx="10" fill="#FF7A00" opacity="0.8"/>
  <rect x="472" y="270" width="96" height="12" rx="6" fill="#CEDBFF"/>
  <rect x="456" y="302" width="128" height="8" rx="4" fill="#E7EDFF"/>
  <circle cx="308" cy="70" r="10" fill="#FF7A00"/>
  <circle cx="338" cy="70" r="6" fill="#FF7A00" opacity="0.6"/>
  <circle cx="362" cy="70" r="4" fill="#FF7A00" opacity="0.3"/>
  <circle cx="468" cy="90" r="12" fill="#3867FF" opacity="0.6"/>
  <rect x="270" y="430" width="120" height="32" rx="16" fill="#3867FF" opacity="0.3"/>
  <rect x="430" y="430" width="120" height="32" rx="16" fill="#FF7A00" opacity="0.3"/>
</svg>
